<svg width="18" height="19" viewBox="0 0 18 19" fill="none" xmlns="http://www.w3.org/2000/svg">
<path d="M15.5855 10.3868L10.523 15.4493C10.4174 15.5549 10.2743 15.6142 10.125 15.6142C9.97573 15.6142 9.83258 15.5549 9.72703 15.4493C9.62148 15.3438 9.56219 15.2006 9.56219 15.0513C9.56219 14.9021 9.62148 14.7589 9.72703 14.6534L13.8298 10.5513H2.8125C2.66332 10.5513 2.52024 10.4921 2.41475 10.3866C2.30926 10.2811 2.25 10.138 2.25 9.98884C2.25 9.83965 2.30926 9.69658 2.41475 9.59109C2.52024 9.4856 2.66332 9.42634 2.8125 9.42634H13.8298L9.72703 5.32431C9.62148 5.21876 9.56219 5.07561 9.56219 4.92634C9.56219 4.77707 9.62148 4.63392 9.72703 4.52837C9.83258 4.42282 9.97573 4.36353 10.125 4.36353C10.2743 4.36353 10.4174 4.42282 10.523 4.52837L15.5855 9.59087C15.6378 9.64311 15.6793 9.70515 15.7076 9.77343C15.7359 9.84172 15.7504 9.91492 15.7504 9.98884C15.7504 10.0628 15.7359 10.136 15.7076 10.2042C15.6793 10.2725 15.6378 10.3346 15.5855 10.3868Z" fill="white"/>
</svg>
