<svg width="24" height="25" viewBox="0 0 24 25" fill="none" xmlns="http://www.w3.org/2000/svg">
<path d="M21 5.48877H15C14.4178 5.48877 13.8437 5.62431 13.3229 5.88467C12.8022 6.14502 12.3493 6.52303 12 6.98877C11.6507 6.52303 11.1978 6.14502 10.6771 5.88467C10.1563 5.62431 9.58217 5.48877 9 5.48877H3C2.60218 5.48877 2.22064 5.6468 1.93934 5.92811C1.65804 6.20941 1.5 6.59094 1.5 6.98877V18.9888C1.5 19.3866 1.65804 19.7681 1.93934 20.0494C2.22064 20.3307 2.60218 20.4888 3 20.4888H9C9.59674 20.4888 10.169 20.7258 10.591 21.1478C11.0129 21.5697 11.25 22.142 11.25 22.7388C11.25 22.9377 11.329 23.1284 11.4697 23.2691C11.6103 23.4098 11.8011 23.4888 12 23.4888C12.1989 23.4888 12.3897 23.4098 12.5303 23.2691C12.671 23.1284 12.75 22.9377 12.75 22.7388C12.75 22.142 12.9871 21.5697 13.409 21.1478C13.831 20.7258 14.4033 20.4888 15 20.4888H21C21.3978 20.4888 21.7794 20.3307 22.0607 20.0494C22.342 19.7681 22.5 19.3866 22.5 18.9888V6.98877C22.5 6.59094 22.342 6.20941 22.0607 5.92811C21.7794 5.6468 21.3978 5.48877 21 5.48877ZM9 18.9888H3V6.98877H9C9.59674 6.98877 10.169 7.22582 10.591 7.64778C11.0129 8.06974 11.25 8.64203 11.25 9.23877V19.7388C10.6015 19.2508 9.8116 18.9875 9 18.9888ZM21 18.9888H15C14.1884 18.9875 13.3985 19.2508 12.75 19.7388V9.23877C12.75 8.64203 12.9871 8.06974 13.409 7.64778C13.831 7.22582 14.4033 6.98877 15 6.98877H21V18.9888ZM15 9.23877H18.75C18.9489 9.23877 19.1397 9.31779 19.2803 9.45844C19.421 9.59909 19.5 9.78986 19.5 9.98877C19.5 10.1877 19.421 10.3784 19.2803 10.5191C19.1397 10.6598 18.9489 10.7388 18.75 10.7388H15C14.8011 10.7388 14.6103 10.6598 14.4697 10.5191C14.329 10.3784 14.25 10.1877 14.25 9.98877C14.25 9.78986 14.329 9.59909 14.4697 9.45844C14.6103 9.31779 14.8011 9.23877 15 9.23877ZM19.5 12.9888C19.5 13.1877 19.421 13.3784 19.2803 13.5191C19.1397 13.6598 18.9489 13.7388 18.75 13.7388H15C14.8011 13.7388 14.6103 13.6598 14.4697 13.5191C14.329 13.3784 14.25 13.1877 14.25 12.9888C14.25 12.7899 14.329 12.5991 14.4697 12.4584C14.6103 12.3178 14.8011 12.2388 15 12.2388H18.75C18.9489 12.2388 19.1397 12.3178 19.2803 12.4584C19.421 12.5991 19.5 12.7899 19.5 12.9888ZM19.5 15.9888C19.5 16.1877 19.421 16.3784 19.2803 16.5191C19.1397 16.6598 18.9489 16.7388 18.75 16.7388H15C14.8011 16.7388 14.6103 16.6598 14.4697 16.5191C14.329 16.3784 14.25 16.1877 14.25 15.9888C14.25 15.7899 14.329 15.5991 14.4697 15.4584C14.6103 15.3178 14.8011 15.2388 15 15.2388H18.75C18.9489 15.2388 19.1397 15.3178 19.2803 15.4584C19.421 15.5991 19.5 15.7899 19.5 15.9888Z" fill="#3B34C6"/>
</svg>
