<svg width="24" height="25" viewBox="0 0 24 25" fill="none" xmlns="http://www.w3.org/2000/svg">
<path d="M19.5 3.98877H17.25V3.23877C17.25 3.03986 17.171 2.84909 17.0303 2.70844C16.8897 2.56779 16.6989 2.48877 16.5 2.48877C16.3011 2.48877 16.1103 2.56779 15.9697 2.70844C15.829 2.84909 15.75 3.03986 15.75 3.23877V3.98877H8.25V3.23877C8.25 3.03986 8.17098 2.84909 8.03033 2.70844C7.88968 2.56779 7.69891 2.48877 7.5 2.48877C7.30109 2.48877 7.11032 2.56779 6.96967 2.70844C6.82902 2.84909 6.75 3.03986 6.75 3.23877V3.98877H4.5C4.10218 3.98877 3.72064 4.1468 3.43934 4.42811C3.15804 4.70941 3 5.09094 3 5.48877V20.4888C3 20.8866 3.15804 21.2681 3.43934 21.5494C3.72064 21.8307 4.10218 21.9888 4.5 21.9888H19.5C19.8978 21.9888 20.2794 21.8307 20.5607 21.5494C20.842 21.2681 21 20.8866 21 20.4888V5.48877C21 5.09094 20.842 4.70941 20.5607 4.42811C20.2794 4.1468 19.8978 3.98877 19.5 3.98877ZM6.75 5.48877V6.23877C6.75 6.43768 6.82902 6.62845 6.96967 6.7691C7.11032 6.90975 7.30109 6.98877 7.5 6.98877C7.69891 6.98877 7.88968 6.90975 8.03033 6.7691C8.17098 6.62845 8.25 6.43768 8.25 6.23877V5.48877H15.75V6.23877C15.75 6.43768 15.829 6.62845 15.9697 6.7691C16.1103 6.90975 16.3011 6.98877 16.5 6.98877C16.6989 6.98877 16.8897 6.90975 17.0303 6.7691C17.171 6.62845 17.25 6.43768 17.25 6.23877V5.48877H19.5V8.48877H4.5V5.48877H6.75ZM19.5 20.4888H4.5V9.98877H19.5V20.4888Z" fill="#3B34C6"/>
</svg>
