<svg width="20" height="20" viewBox="0 0 20 20" fill="none" xmlns="http://www.w3.org/2000/svg">
<path d="M10.875 9.99698C10.875 10.2195 10.809 10.437 10.6854 10.622C10.5618 10.807 10.3861 10.9512 10.1805 11.0363C9.97495 11.1215 9.74875 11.1438 9.53052 11.1004C9.31229 11.057 9.11184 10.9498 8.9545 10.7925C8.79717 10.6351 8.69003 10.4347 8.64662 10.2165C8.60321 9.99823 8.62549 9.77203 8.71064 9.56646C8.79578 9.36089 8.93998 9.18519 9.12498 9.06157C9.30999 8.93796 9.5275 8.87198 9.75 8.87198C10.0484 8.87198 10.3345 8.9905 10.5455 9.20148C10.7565 9.41246 10.875 9.69861 10.875 9.99698ZM5.625 8.87198C5.4025 8.87198 5.18499 8.93796 4.99998 9.06157C4.81498 9.18519 4.67078 9.36089 4.58564 9.56646C4.50049 9.77203 4.47821 9.99823 4.52162 10.2165C4.56502 10.4347 4.67217 10.6351 4.8295 10.7925C4.98684 10.9498 5.18729 11.057 5.40552 11.1004C5.62375 11.1438 5.84995 11.1215 6.05552 11.0363C6.26109 10.9512 6.43679 10.807 6.5604 10.622C6.68402 10.437 6.75 10.2195 6.75 9.99698C6.75 9.69861 6.63147 9.41246 6.4205 9.20148C6.20952 8.9905 5.92337 8.87198 5.625 8.87198ZM13.875 8.87198C13.6525 8.87198 13.435 8.93796 13.25 9.06157C13.065 9.18519 12.9208 9.36089 12.8356 9.56646C12.7505 9.77203 12.7282 9.99823 12.7716 10.2165C12.815 10.4347 12.9222 10.6351 13.0795 10.7925C13.2368 10.9498 13.4373 11.057 13.6555 11.1004C13.8738 11.1438 14.1 11.1215 14.3055 11.0363C14.5111 10.9512 14.6868 10.807 14.8104 10.622C14.934 10.437 15 10.2195 15 9.99698C15 9.69861 14.8815 9.41246 14.6705 9.20148C14.4595 8.9905 14.1734 8.87198 13.875 8.87198ZM19.5 9.99698C19.5004 11.6803 19.0649 13.335 18.236 14.8001C17.4072 16.2652 16.2131 17.4907 14.77 18.3574C13.327 19.2241 11.6841 19.7025 10.0014 19.7459C8.31863 19.7893 6.6533 19.3963 5.1675 18.6051L1.97531 19.6692C1.71102 19.7573 1.4274 19.7701 1.15624 19.7061C0.885089 19.6421 0.637113 19.5039 0.44011 19.3069C0.243108 19.1099 0.104864 18.8619 0.0408727 18.5907C-0.0231183 18.3196 -0.0103272 18.036 0.0778122 17.7717L1.14187 14.5795C0.446389 13.2719 0.0579347 11.823 0.0059975 10.3429C-0.0459397 8.86275 0.240005 7.39023 0.842128 6.0371C1.44425 4.68398 2.34672 3.4858 3.48105 2.53353C4.61537 1.58126 5.95173 0.899925 7.38869 0.541235C8.82565 0.182546 10.3254 0.155933 11.7742 0.463417C13.223 0.7709 14.5827 1.4044 15.7501 2.31582C16.9175 3.22725 17.8619 4.39265 18.5116 5.72357C19.1614 7.05448 19.4994 8.51593 19.5 9.99698ZM18 9.99698C17.9996 8.73147 17.7082 7.483 17.1481 6.34818C16.588 5.21335 15.7744 4.22257 14.7701 3.45251C13.7659 2.68244 12.5979 2.15373 11.3567 1.90728C10.1154 1.66082 8.83405 1.70323 7.61178 2.03123C6.38951 2.35922 5.25909 2.964 4.30796 3.79878C3.35682 4.63357 2.61049 5.67597 2.12668 6.84535C1.64288 8.01473 1.43458 9.27973 1.5179 10.5425C1.60122 11.8053 1.97393 13.0319 2.60719 14.1276C2.66034 14.2196 2.69334 14.3218 2.704 14.4275C2.71467 14.5332 2.70276 14.64 2.66906 14.7407L1.5 18.247L5.00625 17.0779C5.08262 17.0519 5.16275 17.0386 5.24344 17.0385C5.37516 17.0388 5.5045 17.0737 5.61844 17.1398C6.87263 17.8654 8.29581 18.248 9.74479 18.2489C11.1938 18.2498 12.6174 17.8691 13.8725 17.145C15.1276 16.4209 16.1699 15.3791 16.8945 14.1243C17.619 12.8695 18.0003 11.446 18 9.99698Z" fill="#1A1489"/>
</svg>
