<svg width="21" height="18" viewBox="0 0 21 18" fill="none" xmlns="http://www.w3.org/2000/svg">
<path d="M19.5 0H13.5C12.9178 0 12.3437 0.135544 11.8229 0.395898C11.3022 0.656252 10.8493 1.03426 10.5 1.5C10.1507 1.03426 9.69776 0.656252 9.17705 0.395898C8.65634 0.135544 8.08217 0 7.5 0H1.5C1.10218 0 0.720644 0.158035 0.43934 0.43934C0.158035 0.720644 0 1.10218 0 1.5V13.5C0 13.8978 0.158035 14.2794 0.43934 14.5607C0.720644 14.842 1.10218 15 1.5 15H7.5C8.09674 15 8.66903 15.2371 9.09099 15.659C9.51295 16.081 9.75 16.6533 9.75 17.25C9.75 17.4489 9.82902 17.6397 9.96967 17.7803C10.1103 17.921 10.3011 18 10.5 18C10.6989 18 10.8897 17.921 11.0303 17.7803C11.171 17.6397 11.25 17.4489 11.25 17.25C11.25 16.6533 11.4871 16.081 11.909 15.659C12.331 15.2371 12.9033 15 13.5 15H19.5C19.8978 15 20.2794 14.842 20.5607 14.5607C20.842 14.2794 21 13.8978 21 13.5V1.5C21 1.10218 20.842 0.720644 20.5607 0.43934C20.2794 0.158035 19.8978 0 19.5 0ZM7.5 13.5H1.5V1.5H7.5C8.09674 1.5 8.66903 1.73705 9.09099 2.15901C9.51295 2.58097 9.75 3.15326 9.75 3.75V14.25C9.1015 13.762 8.3116 13.4987 7.5 13.5ZM19.5 13.5H13.5C12.6884 13.4987 11.8985 13.762 11.25 14.25V3.75C11.25 3.15326 11.4871 2.58097 11.909 2.15901C12.331 1.73705 12.9033 1.5 13.5 1.5H19.5V13.5ZM13.5 3.75H17.25C17.4489 3.75 17.6397 3.82902 17.7803 3.96967C17.921 4.11032 18 4.30109 18 4.5C18 4.69891 17.921 4.88968 17.7803 5.03033C17.6397 5.17098 17.4489 5.25 17.25 5.25H13.5C13.3011 5.25 13.1103 5.17098 12.9697 5.03033C12.829 4.88968 12.75 4.69891 12.75 4.5C12.75 4.30109 12.829 4.11032 12.9697 3.96967C13.1103 3.82902 13.3011 3.75 13.5 3.75ZM18 7.5C18 7.69891 17.921 7.88968 17.7803 8.03033C17.6397 8.17098 17.4489 8.25 17.25 8.25H13.5C13.3011 8.25 13.1103 8.17098 12.9697 8.03033C12.829 7.88968 12.75 7.69891 12.75 7.5C12.75 7.30109 12.829 7.11032 12.9697 6.96967C13.1103 6.82902 13.3011 6.75 13.5 6.75H17.25C17.4489 6.75 17.6397 6.82902 17.7803 6.96967C17.921 7.11032 18 7.30109 18 7.5ZM18 10.5C18 10.6989 17.921 10.8897 17.7803 11.0303C17.6397 11.171 17.4489 11.25 17.25 11.25H13.5C13.3011 11.25 13.1103 11.171 12.9697 11.0303C12.829 10.8897 12.75 10.6989 12.75 10.5C12.75 10.3011 12.829 10.1103 12.9697 9.96967C13.1103 9.82902 13.3011 9.75 13.5 9.75H17.25C17.4489 9.75 17.6397 9.82902 17.7803 9.96967C17.921 10.1103 18 10.3011 18 10.5Z" fill="#1A1489"/>
</svg>
