<svg width="24" height="25" viewBox="0 0 24 25" fill="none" xmlns="http://www.w3.org/2000/svg">
<path d="M17.25 3.23877H6.75C6.35218 3.23877 5.97064 3.3968 5.68934 3.67811C5.40804 3.95941 5.25 4.34094 5.25 4.73877V8.11377C5.25051 8.34655 5.30495 8.57604 5.40905 8.78425C5.51315 8.99245 5.66408 9.1737 5.85 9.31377L10.7503 12.9888L5.85 16.6638C5.66408 16.8038 5.51315 16.9851 5.40905 17.1933C5.30495 17.4015 5.25051 17.631 5.25 17.8638V21.2388C5.25 21.6366 5.40804 22.0181 5.68934 22.2994C5.97064 22.5807 6.35218 22.7388 6.75 22.7388H17.25C17.6478 22.7388 18.0294 22.5807 18.3107 22.2994C18.592 22.0181 18.75 21.6366 18.75 21.2388V17.8975C18.7495 17.6656 18.6955 17.437 18.5922 17.2294C18.489 17.0217 18.3393 16.8407 18.1547 16.7003L13.2441 12.9888L18.1547 9.27627C18.3393 9.13619 18.4891 8.95535 18.5924 8.74785C18.6957 8.54035 18.7496 8.3118 18.75 8.08002V4.73877C18.75 4.34094 18.592 3.95941 18.3107 3.67811C18.0294 3.3968 17.6478 3.23877 17.25 3.23877ZM17.25 4.73877V6.23877H6.75V4.73877H17.25ZM17.25 21.2388H6.75V17.8638L12 13.9263L17.25 17.8966V21.2388ZM12 12.0513L6.75 8.11377V7.73877H17.25V8.08002L12 12.0513Z" fill="#3B34C6"/>
</svg>
