<svg width="1012" height="205" viewBox="0 0 1012 205" fill="none" xmlns="http://www.w3.org/2000/svg">
<g opacity="0.4">
<path d="M-50.7889 -281.539C-50.7056 -252.754 -33.7499 -182.514 33.4059 -131.835L328.91 75.6011" stroke="white" stroke-width="1.50735" stroke-linecap="round"/>
<path d="M-50.7889 -281.539C-50.7056 -252.754 -33.7499 -182.514 33.4059 -131.835L328.91 75.6011" stroke="url(#paint0_linear_2921_11977)" stroke-width="1.50735" stroke-linecap="round"/>
<path d="M-47.8399 -291.634C-49.8321 -263.802 -38.1255 -195.128 24.6388 -143.088L301.941 70.8545" stroke="white" stroke-width="1.50735" stroke-linecap="round"/>
<path d="M-47.8399 -291.634C-49.8321 -263.802 -38.1255 -195.128 24.6388 -143.088L301.941 70.8545" stroke="url(#paint1_linear_2921_11977)" stroke-width="1.50735" stroke-linecap="round"/>
<path d="M-44.8758 -301.019C-48.8245 -274.205 -42.1431 -207.282 16.1727 -154.104L274.957 65.398" stroke="white" stroke-width="1.50735" stroke-linecap="round"/>
<path d="M-44.8758 -301.019C-48.8245 -274.205 -42.1431 -207.282 16.1727 -154.104L274.957 65.398" stroke="url(#paint2_linear_2921_11977)" stroke-width="1.50735" stroke-linecap="round"/>
<path d="M-41.9593 -309.714C-47.7405 -283.974 -45.8454 -218.97 7.98444 -164.874L248.02 59.2513" stroke="white" stroke-width="1.50735" stroke-linecap="round"/>
<path d="M-41.9593 -309.714C-47.7405 -283.974 -45.8454 -218.97 7.98444 -164.874L248.02 59.2513" stroke="url(#paint3_linear_2921_11977)" stroke-width="1.50735" stroke-linecap="round"/>
<path d="M-39.1493 -317.74C-46.6347 -293.123 -49.2742 -230.188 0.051584 -175.39L221.188 52.4347" stroke="white" stroke-width="1.50735" stroke-linecap="round"/>
<path d="M-39.1493 -317.74C-46.6347 -293.123 -49.2742 -230.188 0.051584 -175.39L221.188 52.4347" stroke="url(#paint4_linear_2921_11977)" stroke-width="1.50735" stroke-linecap="round"/>
<path d="M-36.5035 -325.119C-45.5616 -301.665 -52.4721 -240.935 -7.64979 -185.645L194.52 44.9719" stroke="white" stroke-width="1.50735" stroke-linecap="round"/>
<path d="M-36.5035 -325.119C-45.5616 -301.665 -52.4721 -240.935 -7.64979 -185.645L194.52 44.9719" stroke="url(#paint5_linear_2921_11977)" stroke-width="1.50735" stroke-linecap="round"/>
<path d="M-34.075 -331.878C-44.5715 -309.62 -55.4801 -251.21 -15.1423 -195.634L168.07 36.8892" stroke="white" stroke-width="1.50735" stroke-linecap="round"/>
<path d="M-34.075 -331.878C-44.5715 -309.62 -55.4801 -251.21 -15.1423 -195.634L168.07 36.8892" stroke="url(#paint6_linear_2921_11977)" stroke-width="1.50735" stroke-linecap="round"/>
<path d="M-31.9167 -338.045C-43.7156 -317.007 -58.3411 -261.016 -22.4515 -205.353L141.891 28.214" stroke="white" stroke-width="1.50735" stroke-linecap="round"/>
<path d="M-31.9167 -338.045C-43.7156 -317.007 -58.3411 -261.016 -22.4515 -205.353L141.891 28.214" stroke="url(#paint7_linear_2921_11977)" stroke-width="1.50735" stroke-linecap="round"/>
<path d="M-30.0784 -343.649C-43.0428 -323.848 -61.0978 -270.357 -29.6028 -214.799L116.031 18.9759" stroke="white" stroke-width="1.50735" stroke-linecap="round"/>
<path d="M-30.0784 -343.649C-43.0428 -323.848 -61.0978 -270.357 -29.6028 -214.799L116.031 18.9759" stroke="url(#paint8_linear_2921_11977)" stroke-width="1.50735" stroke-linecap="round"/>
<path d="M-28.6048 -348.722C-42.5974 -330.166 -63.7901 -279.239 -36.6202 -223.971L90.5362 9.20658" stroke="white" stroke-width="1.50735" stroke-linecap="round"/>
<path d="M-28.6048 -348.722C-42.5974 -330.166 -63.7901 -279.239 -36.6202 -223.971L90.5362 9.20658" stroke="url(#paint9_linear_2921_11977)" stroke-width="1.50735" stroke-linecap="round"/>
<path d="M136.144 40.7376C172.98 54.8328 266.993 77.716 348.362 56.4876L660.136 -35.4542" stroke="white" stroke-width="1.50735" stroke-linecap="round"/>
<path d="M136.144 40.7376C172.98 54.8328 266.993 77.716 348.362 56.4876L660.136 -35.4542" stroke="url(#paint10_linear_2921_11977)" stroke-width="1.50735" stroke-linecap="round"/>
<path d="M123.961 33.7482C159.066 48.8009 249.782 74.5209 331.809 56.9793L657.62 -22.8036" stroke="white" stroke-width="1.50735" stroke-linecap="round"/>
<path d="M123.961 33.7482C159.066 48.8009 249.782 74.5209 331.809 56.9793L657.62 -22.8036" stroke="url(#paint11_linear_2921_11977)" stroke-width="1.50735" stroke-linecap="round"/>
<path d="M112.685 27.0974C146.006 42.9941 233.245 71.3062 315.631 57.3809L660.149 -12.5189" stroke="white" stroke-width="1.50735" stroke-linecap="round"/>
<path d="M112.685 27.0974C146.006 42.9941 233.245 71.3062 315.631 57.3809L660.149 -12.5189" stroke="url(#paint12_linear_2921_11977)" stroke-width="1.50735" stroke-linecap="round"/>
<path d="M102.284 20.8182C133.78 37.4459 217.385 68.1035 299.84 57.712L645.65 2.96837" stroke="white" stroke-width="1.50735" stroke-linecap="round"/>
<path d="M102.284 20.8182C133.78 37.4459 217.385 68.1035 299.84 57.712L645.65 2.96837" stroke="url(#paint13_linear_2921_11977)" stroke-width="1.50735" stroke-linecap="round"/>
<path d="M92.7136 14.9414C122.353 32.1881 202.194 64.9438 284.436 57.9925L630.319 18.0535" stroke="white" stroke-width="1.50735" stroke-linecap="round"/>
<path d="M92.7136 14.9414C122.353 32.1881 202.194 64.9438 284.436 57.9925L630.319 18.0535" stroke="url(#paint14_linear_2921_11977)" stroke-width="1.50735" stroke-linecap="round"/>
<path d="M83.9276 9.49502C111.692 27.2504 187.661 61.8574 269.422 58.2422L614.202 32.7092" stroke="white" stroke-width="1.50735" stroke-linecap="round"/>
<path d="M83.9276 9.49502C111.692 27.2504 187.661 61.8574 269.422 58.2422L614.202 32.7092" stroke="url(#paint15_linear_2921_11977)" stroke-width="1.50735" stroke-linecap="round"/>
<path d="M75.8808 4.50281C101.761 22.6587 173.777 58.8722 254.799 58.479L597.345 46.909" stroke="white" stroke-width="1.50735" stroke-linecap="round"/>
<path d="M75.8808 4.50281C101.761 22.6587 173.777 58.8722 254.799 58.479L597.345 46.909" stroke="url(#paint16_linear_2921_11977)" stroke-width="1.50735" stroke-linecap="round"/>
<path d="M68.5251 -0.0119431C92.5238 18.4389 160.53 56.0172 240.567 58.7231L579.796 60.6325" stroke="white" stroke-width="1.50735" stroke-linecap="round"/>
<path d="M68.5251 -0.0119431C92.5238 18.4389 160.53 56.0172 240.567 58.7231L579.796 60.6325" stroke="url(#paint17_linear_2921_11977)" stroke-width="1.50735" stroke-linecap="round"/>
<path d="M61.8116 -4.03067C83.941 14.6128 147.905 53.3184 226.723 58.9925L561.608 73.8598" stroke="white" stroke-width="1.50735" stroke-linecap="round"/>
<path d="M61.8116 -4.03067C83.941 14.6128 147.905 53.3184 226.723 58.9925L561.608 73.8598" stroke="url(#paint18_linear_2921_11977)" stroke-width="1.50735" stroke-linecap="round"/>
<path d="M63.9204 -1.18655C84.203 17.551 135.882 50.8009 213.265 59.3047L542.831 86.5746" stroke="white" stroke-width="1.50735" stroke-linecap="round"/>
<path d="M63.9204 -1.18655C84.203 17.551 135.882 50.8009 213.265 59.3047L542.831 86.5746" stroke="url(#paint19_linear_2921_11977)" stroke-width="1.50735" stroke-linecap="round"/>
<path d="M65.9284 0.309011C84.3964 19.046 124.44 48.4893 200.183 59.6781L523.516 98.7644" stroke="white" stroke-width="1.50735" stroke-linecap="round"/>
<path d="M65.9284 0.309011C84.3964 19.046 124.44 48.4893 200.183 59.6781L523.516 98.7644" stroke="url(#paint20_linear_2921_11977)" stroke-width="1.50735" stroke-linecap="round"/>
<path d="M594.564 62.2632C621.752 43.9458 674.417 -9.27345 667.578 -75.6115L622.743 -357.634" stroke="white" stroke-width="1.50735" stroke-linecap="round"/>
<path d="M594.564 62.2632C621.752 43.9458 674.417 -9.27345 667.578 -75.6115L622.743 -357.634" stroke="url(#paint21_linear_2921_11977)" stroke-width="1.50735" stroke-linecap="round"/>
<path d="M582.598 67.172C610.578 50.5157 666.046 0.961102 664.08 -64.007L640.266 -340.901" stroke="white" stroke-width="1.50735" stroke-linecap="round"/>
<path d="M582.598 67.172C610.578 50.5157 666.046 0.961102 664.08 -64.007L640.266 -340.901" stroke="url(#paint22_linear_2921_11977)" stroke-width="1.50735" stroke-linecap="round"/>
<path d="M571.29 71.6235C599.904 56.6086 657.816 10.7219 660.56 -52.7057L657.129 -323.71" stroke="white" stroke-width="1.50735" stroke-linecap="round"/>
<path d="M571.29 71.6235C599.904 56.6086 657.816 10.7219 660.56 -52.7057L657.129 -323.71" stroke="url(#paint23_linear_2921_11977)" stroke-width="1.50735" stroke-linecap="round"/>
<path d="M560.678 75.6598C589.77 62.2591 649.773 20.0256 657.049 -41.7029L673.302 -306.104" stroke="white" stroke-width="1.50735" stroke-linecap="round"/>
<path d="M560.678 75.6598C589.77 62.2591 649.773 20.0256 657.049 -41.7029L673.302 -306.104" stroke="url(#paint24_linear_2921_11977)" stroke-width="1.50735" stroke-linecap="round"/>
<path d="M550.785 79.3252C580.205 67.5042 641.951 28.8916 653.568 -30.9915L688.753 -288.127" stroke="white" stroke-width="1.50735" stroke-linecap="round"/>
<path d="M550.785 79.3252C580.205 67.5042 641.951 28.8916 653.568 -30.9915L688.753 -288.127" stroke="url(#paint25_linear_2921_11977)" stroke-width="1.50735" stroke-linecap="round"/>
<path d="M541.636 82.6641C571.239 72.3817 634.384 37.3409 650.144 -20.5631L703.457 -269.823" stroke="white" stroke-width="1.50735" stroke-linecap="round"/>
<path d="M541.636 82.6641C571.239 72.3817 634.384 37.3409 650.144 -20.5631L703.457 -269.823" stroke="url(#paint26_linear_2921_11977)" stroke-width="1.50735" stroke-linecap="round"/>
<path d="M533.253 85.7197C562.898 76.9283 627.111 45.3944 646.802 -10.4098L717.397 -251.236" stroke="white" stroke-width="1.50735" stroke-linecap="round"/>
<path d="M533.253 85.7197C562.898 76.9283 627.111 45.3944 646.802 -10.4098L717.397 -251.236" stroke="url(#paint27_linear_2921_11977)" stroke-width="1.50735" stroke-linecap="round"/>
<path d="M525.652 88.537C555.205 81.1829 620.162 53.0756 643.567 -0.52091L730.556 -232.41" stroke="white" stroke-width="1.50735" stroke-linecap="round"/>
<path d="M525.652 88.537C555.205 81.1829 620.162 53.0756 643.567 -0.52091L730.556 -232.41" stroke="url(#paint28_linear_2921_11977)" stroke-width="1.50735" stroke-linecap="round"/>
<path d="M518.844 91.1594C548.177 85.1834 613.566 60.408 640.46 9.11388L742.919 -213.39" stroke="white" stroke-width="1.50735" stroke-linecap="round"/>
<path d="M518.844 91.1594C548.177 85.1834 613.566 60.408 640.46 9.11388L742.919 -213.39" stroke="url(#paint29_linear_2921_11977)" stroke-width="1.50735" stroke-linecap="round"/>
<path d="M512.84 93.63C541.832 88.968 607.356 67.4165 637.506 18.5062L754.485 -194.219" stroke="white" stroke-width="1.50735" stroke-linecap="round"/>
<path d="M512.84 93.63C541.832 88.968 607.356 67.4165 637.506 18.5062L754.485 -194.219" stroke="url(#paint30_linear_2921_11977)" stroke-width="1.50735" stroke-linecap="round"/>
<path d="M507.637 95.992C536.176 92.5753 601.549 74.1273 634.721 27.6692L760.241 -175.545" stroke="white" stroke-width="1.50735" stroke-linecap="round"/>
<path d="M507.637 95.992C536.176 92.5753 601.549 74.1273 634.721 27.6692L760.241 -175.545" stroke="url(#paint31_linear_2921_11977)" stroke-width="1.50735" stroke-linecap="round"/>
</g>
<defs>
<linearGradient id="paint0_linear_2921_11977" x1="111.063" y1="-49.0495" x2="152.887" y2="-164.494" gradientUnits="userSpaceOnUse">
<stop stop-color="#FF1CF7"/>
<stop offset="0.177083" stop-color="#00F0FF"/>
</linearGradient>
<linearGradient id="paint1_linear_2921_11977" x1="95.4751" y1="-59.5327" x2="141.214" y2="-170.863" gradientUnits="userSpaceOnUse">
<stop stop-color="#FF1CF7"/>
<stop offset="0.177083" stop-color="#00F0FF"/>
</linearGradient>
<linearGradient id="paint2_linear_2921_11977" x1="80.2222" y1="-70.0911" x2="129.735" y2="-177.287" gradientUnits="userSpaceOnUse">
<stop stop-color="#FF1CF7"/>
<stop offset="0.177083" stop-color="#00F0FF"/>
</linearGradient>
<linearGradient id="paint3_linear_2921_11977" x1="65.3086" y1="-80.7044" x2="118.467" y2="-183.727" gradientUnits="userSpaceOnUse">
<stop stop-color="#FF1CF7"/>
<stop offset="0.177083" stop-color="#00F0FF"/>
</linearGradient>
<linearGradient id="paint4_linear_2921_11977" x1="50.7372" y1="-91.354" x2="107.422" y2="-190.139" gradientUnits="userSpaceOnUse">
<stop stop-color="#FF1CF7"/>
<stop offset="0.177083" stop-color="#00F0FF"/>
</linearGradient>
<linearGradient id="paint5_linear_2921_11977" x1="36.5089" y1="-102.021" x2="96.6057" y2="-196.481" gradientUnits="userSpaceOnUse">
<stop stop-color="#FF1CF7"/>
<stop offset="0.177083" stop-color="#00F0FF"/>
</linearGradient>
<linearGradient id="paint6_linear_2921_11977" x1="22.6242" y1="-112.687" x2="86.0162" y2="-202.706" gradientUnits="userSpaceOnUse">
<stop stop-color="#FF1CF7"/>
<stop offset="0.177083" stop-color="#00F0FF"/>
</linearGradient>
<linearGradient id="paint7_linear_2921_11977" x1="9.07948" y1="-123.332" x2="75.6427" y2="-208.771" gradientUnits="userSpaceOnUse">
<stop stop-color="#FF1CF7"/>
<stop offset="0.177083" stop-color="#00F0FF"/>
</linearGradient>
<linearGradient id="paint8_linear_2921_11977" x1="-4.13034" y1="-133.941" x2="65.4657" y2="-214.628" gradientUnits="userSpaceOnUse">
<stop stop-color="#FF1CF7"/>
<stop offset="0.177083" stop-color="#00F0FF"/>
</linearGradient>
<linearGradient id="paint9_linear_2921_11977" x1="-17.0103" y1="-144.496" x2="55.4579" y2="-220.235" gradientUnits="userSpaceOnUse">
<stop stop-color="#FF1CF7"/>
<stop offset="0.177083" stop-color="#00F0FF"/>
</linearGradient>
<linearGradient id="paint10_linear_2921_11977" x1="458.229" y1="46.9494" x2="373.852" y2="-70.7118" gradientUnits="userSpaceOnUse">
<stop stop-color="#FF1CF7"/>
<stop offset="0.177083" stop-color="#00F0FF"/>
</linearGradient>
<linearGradient id="paint11_linear_2921_11977" x1="447.119" y1="51.4227" x2="372.401" y2="-67.4618" gradientUnits="userSpaceOnUse">
<stop stop-color="#FF1CF7"/>
<stop offset="0.177083" stop-color="#00F0FF"/>
</linearGradient>
<linearGradient id="paint12_linear_2921_11977" x1="438.867" y1="54.6759" x2="373.298" y2="-64.6504" gradientUnits="userSpaceOnUse">
<stop stop-color="#FF1CF7"/>
<stop offset="0.177083" stop-color="#00F0FF"/>
</linearGradient>
<linearGradient id="paint13_linear_2921_11977" x1="421.619" y1="59.7052" x2="365.604" y2="-57.4307" gradientUnits="userSpaceOnUse">
<stop stop-color="#FF1CF7"/>
<stop offset="0.177083" stop-color="#00F0FF"/>
</linearGradient>
<linearGradient id="paint14_linear_2921_11977" x1="404.408" y1="64.4815" x2="357.141" y2="-49.9332" gradientUnits="userSpaceOnUse">
<stop stop-color="#FF1CF7"/>
<stop offset="0.177083" stop-color="#00F0FF"/>
</linearGradient>
<linearGradient id="paint15_linear_2921_11977" x1="387.258" y1="69.0136" x2="347.963" y2="-42.2752" gradientUnits="userSpaceOnUse">
<stop stop-color="#FF1CF7"/>
<stop offset="0.177083" stop-color="#00F0FF"/>
</linearGradient>
<linearGradient id="paint16_linear_2921_11977" x1="370.194" y1="73.3101" x2="338.139" y2="-34.5537" gradientUnits="userSpaceOnUse">
<stop stop-color="#FF1CF7"/>
<stop offset="0.177083" stop-color="#00F0FF"/>
</linearGradient>
<linearGradient id="paint17_linear_2921_11977" x1="353.239" y1="77.3831" x2="327.739" y2="-26.8435" gradientUnits="userSpaceOnUse">
<stop stop-color="#FF1CF7"/>
<stop offset="0.177083" stop-color="#00F0FF"/>
</linearGradient>
<linearGradient id="paint18_linear_2921_11977" x1="336.416" y1="81.2438" x2="316.838" y2="-19.2031" gradientUnits="userSpaceOnUse">
<stop stop-color="#FF1CF7"/>
<stop offset="0.177083" stop-color="#00F0FF"/>
</linearGradient>
<linearGradient id="paint19_linear_2921_11977" x1="322.94" y1="86.0086" x2="309.354" y2="-6.16803" gradientUnits="userSpaceOnUse">
<stop stop-color="#FF1CF7"/>
<stop offset="0.177083" stop-color="#00F0FF"/>
</linearGradient>
<linearGradient id="paint20_linear_2921_11977" x1="309.878" y1="90.2944" x2="301.2" y2="4.94725" gradientUnits="userSpaceOnUse">
<stop stop-color="#FF1CF7"/>
<stop offset="0.177083" stop-color="#00F0FF"/>
</linearGradient>
<linearGradient id="paint21_linear_2921_11977" x1="682.565" y1="-167.675" x2="557.239" y2="-87.3664" gradientUnits="userSpaceOnUse">
<stop stop-color="#FF1CF7"/>
<stop offset="0.177083" stop-color="#00F0FF"/>
</linearGradient>
<linearGradient id="paint22_linear_2921_11977" x1="685.365" y1="-153.09" x2="556.137" y2="-81.3187" gradientUnits="userSpaceOnUse">
<stop stop-color="#FF1CF7"/>
<stop offset="0.177083" stop-color="#00F0FF"/>
</linearGradient>
<linearGradient id="paint23_linear_2921_11977" x1="687.82" y1="-138.627" x2="555.251" y2="-75.9665" gradientUnits="userSpaceOnUse">
<stop stop-color="#FF1CF7"/>
<stop offset="0.177083" stop-color="#00F0FF"/>
</linearGradient>
<linearGradient id="paint24_linear_2921_11977" x1="689.947" y1="-124.302" x2="554.738" y2="-71.3004" gradientUnits="userSpaceOnUse">
<stop stop-color="#FF1CF7"/>
<stop offset="0.177083" stop-color="#00F0FF"/>
</linearGradient>
<linearGradient id="paint25_linear_2921_11977" x1="691.76" y1="-110.128" x2="554.752" y2="-67.2749" gradientUnits="userSpaceOnUse">
<stop stop-color="#FF1CF7"/>
<stop offset="0.177083" stop-color="#00F0FF"/>
</linearGradient>
<linearGradient id="paint26_linear_2921_11977" x1="693.274" y1="-96.118" x2="555.454" y2="-63.8033" gradientUnits="userSpaceOnUse">
<stop stop-color="#FF1CF7"/>
<stop offset="0.177083" stop-color="#00F0FF"/>
</linearGradient>
<linearGradient id="paint27_linear_2921_11977" x1="694.51" y1="-82.2835" x2="556.991" y2="-60.7572" gradientUnits="userSpaceOnUse">
<stop stop-color="#FF1CF7"/>
<stop offset="0.177083" stop-color="#00F0FF"/>
</linearGradient>
<linearGradient id="paint28_linear_2921_11977" x1="695.488" y1="-68.634" x2="559.485" y2="-57.9645" gradientUnits="userSpaceOnUse">
<stop stop-color="#FF1CF7"/>
<stop offset="0.177083" stop-color="#00F0FF"/>
</linearGradient>
<linearGradient id="paint29_linear_2921_11977" x1="696.226" y1="-55.1789" x2="563.012" y2="-55.219" gradientUnits="userSpaceOnUse">
<stop stop-color="#FF1CF7"/>
<stop offset="0.177083" stop-color="#00F0FF"/>
</linearGradient>
<linearGradient id="paint30_linear_2921_11977" x1="696.749" y1="-41.9262" x2="567.604" y2="-52.2916" gradientUnits="userSpaceOnUse">
<stop stop-color="#FF1CF7"/>
<stop offset="0.177083" stop-color="#00F0FF"/>
</linearGradient>
<linearGradient id="paint31_linear_2921_11977" x1="693.127" y1="-29.4453" x2="572.228" y2="-49.0315" gradientUnits="userSpaceOnUse">
<stop stop-color="#FF1CF7"/>
<stop offset="0.177083" stop-color="#00F0FF"/>
</linearGradient>
</defs>
</svg>
