<svg width="814" height="284" viewBox="0 0 814 284" fill="none" xmlns="http://www.w3.org/2000/svg">
<g opacity="0.5">
<path d="M380.875 30.9826C434.127 -38.3353 494.005 -92.0987 547.748 -122.995C574.62 -138.443 599.936 -148.162 622.108 -151.263C644.277 -154.364 663.261 -150.846 677.539 -139.877C691.817 -128.908 700.109 -111.472 702.826 -89.2524C705.544 -67.0305 702.678 -40.0649 694.677 -10.1188C678.675 49.7708 642.16 121.482 588.907 190.8C535.655 260.118 475.778 313.881 422.035 344.777C395.163 360.225 369.847 369.944 347.675 373.045C325.506 376.146 306.521 372.628 292.244 361.659C277.966 350.69 269.674 333.254 266.956 311.035C264.239 288.813 267.104 261.847 275.106 231.901C291.107 172.011 327.623 100.301 380.875 30.9826Z" stroke="url(#paint0_linear_2921_12348)"/>
<path d="M382.286 29.1794C436.74 -39.1986 497.546 -91.9088 551.82 -121.862C578.958 -136.839 604.44 -146.114 626.662 -148.828C648.882 -151.542 667.802 -147.693 681.887 -136.477C695.971 -125.26 703.957 -107.682 706.286 -85.4184C708.616 -63.1525 705.28 -36.241 696.757 -6.43916C679.713 53.1621 641.951 124.225 587.497 192.603C533.043 260.981 472.237 313.691 417.963 343.644C390.825 358.621 365.343 367.897 343.121 370.61C320.901 373.324 301.981 369.475 287.897 358.259C273.812 347.042 265.826 329.464 263.497 307.201C261.167 284.935 264.503 258.023 273.026 228.221C290.07 168.62 327.832 97.5575 382.286 29.1794Z" stroke="url(#paint1_linear_2921_12348)"/>
<path d="M383.728 27.4011C439.366 -40.0162 501.084 -91.6572 555.872 -120.659C583.267 -135.16 608.907 -143.989 631.173 -146.315C653.437 -148.64 672.287 -144.461 686.174 -133.001C700.06 -121.541 707.739 -103.826 709.679 -81.5247C711.619 -59.2216 707.814 -32.3724 698.773 -2.72383C680.691 56.5709 641.694 126.964 586.056 194.381C530.417 261.798 468.699 313.439 413.911 342.441C386.516 356.942 360.876 365.771 338.61 368.096C316.346 370.422 297.496 366.243 283.609 354.783C269.723 343.322 262.044 325.607 260.104 303.307C258.164 281.003 261.969 254.154 271.01 224.506C289.092 165.211 328.089 94.8183 383.728 27.4011Z" stroke="url(#paint2_linear_2921_12348)"/>
<path d="M385.2 25.6484C442.007 -40.7876 504.616 -91.3435 559.902 -119.384C587.546 -133.406 613.336 -141.786 635.64 -143.722C657.941 -145.659 676.715 -141.152 690.399 -129.451C704.083 -117.75 711.452 -99.9034 713.002 -77.5722C714.553 -55.2385 710.28 -28.4598 700.723 1.02639C681.608 59.9965 641.39 129.698 584.583 196.134C527.776 262.57 465.166 313.126 409.88 341.167C382.236 355.188 356.446 363.568 334.143 365.505C311.842 367.441 293.068 362.934 279.383 351.233C265.699 339.532 258.331 321.686 256.78 299.354C255.229 277.021 259.502 250.242 269.06 220.756C288.174 161.786 328.393 92.0844 385.2 25.6484Z" stroke="url(#paint3_linear_2921_12348)"/>
<path d="M386.702 23.9215C444.66 -41.5129 508.142 -90.9685 563.909 -118.04C591.794 -131.577 617.726 -139.506 640.06 -141.053C662.392 -142.6 681.084 -137.766 694.562 -125.828C708.04 -113.89 715.096 -95.9173 716.256 -73.5624C717.417 -51.2051 712.678 -24.5051 702.607 4.80988C682.466 63.4375 641.037 132.426 583.08 197.861C525.122 263.295 461.64 312.751 405.873 339.823C377.988 353.359 352.056 361.288 329.722 362.835C307.39 364.382 288.698 359.548 275.22 347.61C261.742 335.672 254.686 317.7 253.525 295.345C252.365 272.987 257.104 246.287 267.175 216.972C287.315 158.345 328.744 89.3559 386.702 23.9215Z" stroke="url(#paint4_linear_2921_12348)"/>
<path d="M388.235 22.221C447.326 -42.1919 511.662 -90.5321 567.892 -116.626C596.009 -129.674 622.076 -137.149 644.433 -138.306C666.788 -139.463 685.394 -134.304 698.661 -122.132C711.929 -109.961 718.67 -91.8683 719.44 -69.4965C720.211 -47.1223 715.006 -20.5091 704.425 8.62563C683.265 66.8928 640.638 135.148 581.547 199.561C522.456 263.974 458.12 312.314 401.889 338.409C373.773 351.456 347.706 358.931 325.348 360.088C302.993 361.245 284.388 356.086 271.12 343.914C257.853 331.743 251.112 313.65 250.342 291.279C249.571 268.904 254.776 242.291 265.357 213.156C286.517 154.889 329.144 86.634 388.235 22.221Z" stroke="url(#paint5_linear_2921_12348)"/>
<path d="M389.798 20.5477C450.004 -42.8242 515.173 -90.0342 571.851 -115.143C600.191 -127.698 626.384 -134.717 648.759 -135.484C671.13 -136.251 689.643 -130.767 702.696 -118.366C715.749 -105.965 722.173 -87.7574 722.553 -65.3756C722.933 -42.9914 717.264 -16.473 706.177 12.4726C684.003 70.3616 640.191 137.863 579.985 201.234C519.779 264.606 454.609 311.816 397.932 336.925C369.592 349.48 343.398 356.499 321.024 357.266C298.652 358.033 280.14 352.549 267.087 340.148C254.033 327.747 247.609 309.539 247.229 287.158C246.85 264.773 252.518 238.255 263.606 209.309C285.78 151.42 329.591 83.9195 389.798 20.5477Z" stroke="url(#paint6_linear_2921_12348)"/>
<path d="M391.388 18.9017C452.691 -43.4098 518.674 -89.4752 575.782 -113.591C604.337 -125.65 630.648 -132.21 653.033 -132.587C675.415 -132.963 693.829 -127.157 706.663 -114.53C719.498 -101.903 725.603 -83.5861 725.592 -61.2011C725.582 -38.8137 719.451 -12.3983 707.86 16.3494C684.679 73.8426 639.696 140.569 578.393 202.88C517.09 265.192 451.107 311.257 393.999 335.373C365.445 347.432 339.133 353.992 316.748 354.368C294.367 354.744 275.953 348.939 263.118 336.312C250.283 323.685 244.178 305.368 244.189 282.983C244.199 260.595 250.33 234.18 261.921 205.432C285.102 147.939 330.085 81.2131 391.388 18.9017Z" stroke="url(#paint7_linear_2921_12348)"/>
<path d="M393.008 17.2837C455.389 -43.9484 522.166 -88.8552 579.686 -111.971C608.447 -123.529 634.869 -129.63 657.256 -129.615C679.641 -129.601 697.951 -123.474 710.564 -110.625C723.176 -97.7762 728.961 -79.3556 728.559 -56.9742C728.158 -34.5904 721.567 -8.286 709.476 20.255C685.295 77.3349 639.155 143.266 576.773 204.498C514.392 265.73 447.615 310.637 390.096 333.752C361.335 345.311 334.912 351.411 312.525 351.397C290.14 351.382 271.83 345.256 259.218 332.407C246.605 319.558 240.82 301.137 241.222 278.756C241.624 256.372 248.214 230.068 260.305 201.526C284.486 144.447 330.627 78.5158 393.008 17.2837Z" stroke="url(#paint8_linear_2921_12348)"/>
<path d="M394.656 15.6945C458.096 -44.4395 525.647 -88.1741 583.561 -110.282C612.519 -121.337 639.044 -126.976 661.428 -126.57C683.809 -126.165 702.01 -119.72 714.396 -106.653C726.782 -93.5856 732.244 -75.0669 731.452 -52.6959C730.66 -30.3225 723.611 -4.13714 711.024 24.1885C685.851 80.8377 638.566 145.953 575.126 206.087C511.686 266.221 444.135 309.956 386.221 332.064C357.263 343.119 330.738 348.757 308.354 348.352C285.973 347.947 267.773 341.502 255.386 328.435C243 315.367 237.538 296.849 238.33 274.478C239.122 252.104 246.171 225.919 258.758 197.593C283.932 140.944 331.216 75.8286 394.656 15.6945Z" stroke="url(#paint9_linear_2921_12348)"/>
<path d="M396.331 14.1343C460.811 -44.8834 529.115 -87.4324 587.406 -108.527C616.553 -119.074 643.172 -124.249 665.545 -123.453C687.916 -122.657 706.001 -115.896 718.157 -102.614C730.314 -89.3328 735.452 -70.7215 734.27 -48.3678C733.087 -26.0116 725.583 0.046766 712.503 28.1484C686.344 84.3496 637.931 148.63 573.451 207.648C508.971 266.665 440.667 309.214 382.376 330.309C353.229 340.856 326.61 346.031 304.237 345.235C281.866 344.439 263.781 337.678 251.625 324.396C239.468 311.115 234.33 292.504 235.512 270.15C236.695 247.794 244.2 221.735 257.279 193.634C283.438 137.432 331.851 73.1521 396.331 14.1343Z" stroke="url(#paint10_linear_2921_12348)"/>
<path d="M398.033 12.6034C463.533 -45.28 532.569 -86.6304 591.22 -106.704C620.546 -116.741 647.252 -121.451 669.608 -120.264C691.961 -119.078 709.925 -112.002 721.848 -98.5107C733.771 -85.0192 738.583 -66.3211 737.011 -43.9913C735.438 -21.6592 727.48 4.2642 713.912 32.1333C686.777 87.8694 637.249 151.295 571.749 209.178C506.248 267.062 437.212 308.412 378.562 328.486C349.236 338.523 322.53 343.233 300.174 342.046C277.821 340.86 259.856 333.784 247.934 320.293C236.011 306.801 231.198 288.103 232.771 265.773C234.343 243.441 242.302 217.518 255.87 189.649C283.005 133.912 332.533 70.4868 398.033 12.6034Z" stroke="url(#paint11_linear_2921_12348)"/>
<path d="M399.762 11.1023C466.262 -45.6291 536.009 -85.7684 595.001 -104.815C624.498 -114.339 651.282 -118.582 673.614 -117.006C695.943 -115.43 713.781 -108.041 725.466 -94.3435C737.152 -80.6459 741.637 -61.8667 739.676 -39.5678C737.714 -17.2665 729.304 8.51406 715.252 36.1421C687.148 91.3961 636.521 153.948 570.02 210.679C503.52 267.411 433.772 307.55 374.781 326.597C345.284 336.121 318.5 340.363 296.168 338.787C273.839 337.211 256.001 329.823 244.315 316.125C232.63 302.427 228.144 283.648 230.106 261.349C232.068 239.048 240.478 213.268 254.53 185.639C282.634 130.385 333.261 67.8338 399.762 11.1023Z" stroke="url(#paint12_linear_2921_12348)"/>
<path d="M401.516 9.63177C468.996 -45.9304 539.433 -84.8464 598.748 -102.861C628.407 -111.869 655.261 -115.643 677.562 -113.677C699.86 -111.712 717.567 -104.013 729.011 -90.1137C740.456 -76.2143 744.613 -57.3596 742.262 -35.0983C739.911 -12.8347 731.053 12.7952 716.521 40.1738C687.457 94.9289 635.746 156.587 568.265 212.15C500.785 267.712 430.348 306.628 371.032 324.642C341.373 333.65 314.52 337.425 292.219 335.459C269.92 333.493 252.214 325.795 240.77 311.895C229.325 297.996 225.168 279.141 227.519 256.88C229.869 234.616 238.728 208.986 253.26 181.608C282.324 126.853 334.035 65.194 401.516 9.63177Z" stroke="url(#paint13_linear_2921_12348)"/>
<path d="M403.296 8.1923C471.736 -46.1837 542.841 -83.8645 602.462 -100.841C632.273 -109.33 659.189 -112.635 681.452 -110.28C703.713 -107.926 721.282 -99.9195 732.482 -85.8224C743.682 -71.7253 747.51 -52.801 744.771 -30.5841C742.032 -8.36491 732.728 17.1065 717.72 44.2273C687.705 98.4668 634.925 159.213 566.485 213.59C498.046 267.966 426.94 305.646 367.319 322.623C337.508 331.112 310.593 334.417 288.329 332.062C266.069 329.708 248.499 321.701 237.299 307.604C226.099 293.507 222.271 274.583 225.01 252.366C227.749 230.147 237.053 204.675 252.061 177.555C282.077 123.315 334.856 62.5684 403.296 8.1923Z" stroke="url(#paint14_linear_2921_12348)"/>
<path d="M405.101 6.78398C474.48 -46.3893 546.232 -82.8234 606.14 -98.7569C636.095 -106.724 663.064 -109.559 685.282 -106.816C707.499 -104.074 724.926 -95.7617 735.878 -81.4713C746.831 -67.1809 750.327 -48.1926 747.201 -26.027C744.075 -3.85895 734.327 21.4462 718.848 48.3009C687.891 102.008 634.06 161.825 564.681 214.998C495.303 268.171 423.55 304.605 363.643 320.539C333.688 328.506 306.719 331.341 284.5 328.598C262.284 325.856 244.857 317.544 233.904 303.253C222.952 288.963 219.455 269.975 222.581 247.809C225.708 225.641 235.455 200.336 250.934 173.481C281.891 119.774 335.723 59.9573 405.101 6.78398Z" stroke="url(#paint15_linear_2921_12348)"/>
<path d="M406.93 5.40709C477.226 -46.5473 549.603 -81.7235 609.78 -96.6091C639.87 -104.052 666.884 -106.416 689.052 -103.286C711.217 -100.156 728.496 -91.5413 739.197 -77.0619C749.899 -62.5825 753.063 -43.5361 749.551 -21.4284C746.038 0.681678 735.851 25.8128 719.905 52.3934C688.015 105.552 633.148 164.42 562.852 216.374C492.556 268.329 420.179 303.505 360.002 318.391C329.913 325.834 302.899 328.198 280.731 325.067C258.566 321.938 241.287 313.323 230.585 298.843C219.884 284.364 216.719 265.318 220.232 243.21C223.745 221.1 233.932 195.969 249.877 169.388C281.767 116.229 336.634 57.3615 406.93 5.40709Z" stroke="url(#paint16_linear_2921_12348)"/>
<path d="M408.783 4.06277C479.975 -46.6569 552.955 -80.5646 613.383 -94.3977C643.598 -101.315 670.649 -103.207 692.758 -99.69C714.866 -96.1738 731.992 -87.2587 742.439 -72.5948C752.886 -57.9309 755.718 -38.8321 751.82 -16.7891C747.922 5.25633 737.297 30.2059 720.89 56.5041C688.078 109.098 632.191 167 560.999 217.719C489.808 268.439 416.827 302.347 356.4 316.18C326.185 323.097 299.134 324.989 277.024 321.472C254.917 317.956 237.791 309.041 227.344 294.377C216.897 279.713 214.065 260.614 217.963 238.571C221.861 216.526 232.485 191.576 248.892 165.278C281.705 112.684 337.591 54.7824 408.783 4.06277Z" stroke="url(#paint17_linear_2921_12348)"/>
<path d="M410.659 2.75057C482.725 -46.7189 556.286 -79.3477 616.945 -92.1241C647.276 -98.5126 674.357 -99.9322 696.401 -96.0303C718.444 -92.1289 735.412 -82.9163 745.601 -68.0722C755.791 -53.2282 758.289 -34.083 754.007 -12.1113C749.725 9.86273 738.666 34.623 721.803 60.6309C688.077 112.645 631.189 169.562 559.123 219.031C487.057 268.5 413.496 301.129 352.836 313.906C322.505 320.294 295.425 321.714 273.38 317.812C251.338 313.91 234.37 304.698 224.18 289.854C213.991 275.01 211.493 255.865 215.775 233.893C220.057 211.919 231.115 187.159 247.979 161.151C281.704 109.137 338.592 52.22 410.659 2.75057Z" stroke="url(#paint18_linear_2921_12348)"/>
<path d="M412.557 1.47155C485.476 -46.7326 559.595 -78.0727 620.468 -89.7885C650.906 -95.6467 678.007 -96.5934 699.981 -92.3074C721.952 -88.0218 738.756 -78.5145 748.685 -63.4949C758.614 -48.4753 760.778 -29.2894 756.113 -7.39579C751.448 14.5002 739.959 39.0637 722.644 64.7733C688.016 116.19 630.143 172.106 557.225 220.31C484.306 268.514 410.187 299.854 349.313 311.57C318.876 317.428 291.775 318.375 269.801 314.089C247.83 309.803 231.026 300.296 221.097 285.277C211.168 270.257 209.004 251.071 213.669 229.177C218.334 207.281 229.823 182.718 247.138 157.008C281.766 105.591 339.639 49.6757 412.557 1.47155Z" stroke="url(#paint19_linear_2921_12348)"/>
<path d="M414.479 0.226104C488.227 -46.6981 562.882 -76.7399 623.951 -87.3915C654.486 -92.7176 681.599 -93.1912 703.495 -88.5223C725.387 -83.854 742.023 -74.0548 751.689 -58.8642C761.354 -43.6736 763.183 -24.4529 758.136 -2.64402C753.09 19.1672 741.174 43.5265 723.413 68.93C687.893 119.735 629.053 174.632 555.304 221.556C481.555 268.48 406.901 298.522 345.832 309.174C315.297 314.5 288.183 314.973 266.288 310.305C244.395 305.636 227.759 295.837 218.094 280.646C208.429 265.456 206.6 246.235 211.646 224.426C216.693 202.615 228.609 178.256 246.369 152.852C281.89 102.047 340.73 47.1504 414.479 0.226104Z" stroke="url(#paint20_linear_2921_12348)"/>
<path d="M416.42 -0.986434C490.976 -46.6164 566.144 -75.3507 627.389 -84.9349C658.013 -89.7272 685.13 -89.7276 706.941 -84.6773C728.749 -79.6276 745.211 -69.5396 754.61 -54.1826C764.009 -38.8257 765.501 -19.5759 760.075 2.14152C754.649 23.8613 742.31 48.0089 724.109 73.0986C687.707 123.276 627.918 177.138 553.361 222.768C478.805 268.398 403.637 297.132 342.392 306.716C311.768 311.508 284.651 311.509 262.84 306.459C241.032 301.409 224.57 291.321 215.171 275.964C205.772 260.607 204.28 241.357 209.706 219.64C215.132 197.92 227.471 173.772 245.673 148.683C282.074 98.5053 341.863 44.6436 416.42 -0.986434Z" stroke="url(#paint21_linear_2921_12348)"/>
<path d="M418.383 -2.16405C493.725 -46.4859 569.382 -73.9039 630.785 -82.4178C661.488 -86.6749 688.601 -86.2021 710.32 -80.7719C732.037 -75.3423 748.321 -64.9686 757.45 -49.4499C766.579 -33.9313 767.736 -14.6584 761.932 6.96106C756.127 28.5828 743.369 52.5115 724.732 77.2796C687.46 126.814 626.74 179.624 551.399 223.946C476.057 268.268 400.4 295.686 338.996 304.2C308.294 308.457 281.18 307.984 259.461 302.554C237.745 297.124 221.461 286.75 212.332 271.232C203.202 255.713 202.046 236.44 207.85 214.821C213.655 193.199 226.413 169.27 245.05 144.502C282.321 94.9678 343.041 42.1578 418.383 -2.16405Z" stroke="url(#paint22_linear_2921_12348)"/>
<path d="M420.366 -3.30773C496.47 -46.3079 572.594 -72.4014 634.137 -79.8424C664.909 -83.563 692.01 -82.617 713.631 -76.8086C735.249 -71.0009 751.35 -60.3445 760.207 -44.6689C769.064 -28.9932 769.884 -9.70312 763.703 11.8117C757.522 33.3289 744.348 57.0312 725.282 81.4704C687.152 130.347 625.519 182.089 549.416 225.089C473.312 268.089 397.187 294.183 335.645 301.624C304.873 305.344 277.772 304.398 256.151 298.59C234.532 292.782 218.432 282.126 209.575 266.45C200.718 250.775 199.898 231.485 206.078 209.97C212.26 188.453 225.434 164.75 244.5 140.311C282.63 91.4348 344.263 39.6925 420.366 -3.30773Z" stroke="url(#paint23_linear_2921_12348)"/>
<path d="M422.369 -4.4163C499.212 -46.0818 575.78 -70.8427 637.443 -77.2085C668.276 -80.3915 695.356 -78.9727 716.872 -72.7878C738.386 -66.6037 754.298 -55.6679 762.88 -39.8401C771.462 -24.0123 771.946 -4.71079 765.39 16.6929C758.834 38.0989 745.249 61.5677 725.759 85.6704C686.781 133.874 624.255 184.533 547.413 226.198C470.57 267.864 394.002 292.624 332.339 298.99C301.507 302.173 274.426 300.754 252.91 294.57C231.396 288.385 215.484 277.45 206.902 261.622C198.32 245.794 197.837 226.493 204.392 205.089C210.948 183.683 224.534 160.214 244.023 136.111C283.001 87.9079 345.527 37.2492 422.369 -4.4163Z" stroke="url(#paint24_linear_2921_12348)"/>
<path d="M424.391 -5.48976C501.949 -45.8078 578.938 -69.2287 640.702 -74.5173C671.586 -77.1617 698.637 -75.2705 720.042 -68.7111C741.445 -62.1524 757.164 -50.9406 765.468 -34.9654C773.773 -18.9903 773.919 0.316739 766.991 21.6028C760.063 42.8911 746.07 66.1192 726.162 89.8781C686.349 137.394 622.949 186.954 545.391 227.272C467.833 267.59 390.844 291.011 329.08 296.299C298.196 298.944 271.145 297.053 249.74 290.493C228.337 283.934 212.618 272.723 204.314 256.747C196.009 240.772 195.863 221.465 202.791 200.179C209.719 178.891 223.712 155.663 243.62 131.904C283.433 84.3881 346.833 34.8283 424.391 -5.48976Z" stroke="url(#paint25_linear_2921_12348)"/>
<path d="M426.432 -6.5278C504.681 -45.4861 582.067 -67.5598 643.915 -71.7697C674.84 -73.8747 701.854 -71.5116 723.141 -64.5797C744.426 -57.6485 759.947 -46.164 767.971 -30.0464C775.996 -13.9287 775.805 5.37793 768.507 26.5398C761.208 47.704 746.812 70.6844 726.493 94.0922C685.856 140.906 621.601 189.352 543.351 228.31C465.101 267.268 387.715 289.342 325.868 293.552C294.943 295.657 267.928 293.294 246.641 286.362C225.356 279.431 209.836 267.946 201.811 251.829C193.787 235.711 193.977 216.404 201.275 195.242C208.574 174.078 222.971 151.098 243.29 127.69C283.926 80.8763 348.182 32.4305 426.432 -6.5278Z" stroke="url(#paint26_linear_2921_12348)"/>
<path d="M428.49 -7.53049C507.408 -45.1172 585.167 -65.837 647.079 -68.9668C678.035 -70.5318 705.004 -67.6976 726.167 -60.3952C747.328 -53.0936 762.646 -41.34 770.388 -25.0848C778.13 -8.82952 777.602 10.4708 769.936 31.5021C762.269 52.5357 747.473 75.2613 726.749 98.3109C685.302 144.408 620.21 191.725 541.293 229.312C462.375 266.899 384.616 287.619 322.704 290.748C291.747 292.313 264.778 289.479 243.615 282.177C222.454 274.875 207.137 263.122 199.395 246.866C191.653 230.611 192.18 211.311 199.847 190.279C207.514 169.246 222.309 146.52 243.033 123.471C284.48 77.3732 349.572 30.0563 428.49 -7.53049Z" stroke="url(#paint27_linear_2921_12348)"/>
<path d="M430.565 -8.4968C510.127 -44.7005 588.236 -64.06 650.192 -66.1089C681.172 -67.1333 708.087 -63.8289 729.12 -56.1583C750.15 -48.4885 765.26 -36.4694 772.717 -20.0815C780.174 -3.69356 779.31 15.5946 771.278 36.4889C763.245 57.3855 748.055 79.8494 726.931 102.534C684.686 147.901 618.779 194.075 539.217 230.278C459.655 266.482 381.546 285.842 319.589 287.89C288.61 288.915 261.694 285.611 240.662 277.94C219.632 270.27 204.522 258.251 197.065 241.863C189.607 225.475 190.472 206.187 198.504 185.293C206.537 164.396 221.727 141.932 242.85 119.248C285.095 73.8807 351.003 27.7069 430.565 -8.4968Z" stroke="url(#paint28_linear_2921_12348)"/>
<path d="M432.657 -9.42648C512.839 -44.2361 591.274 -62.2295 653.257 -63.1967C684.25 -63.6804 711.103 -59.9068 731.998 -51.8702C752.891 -43.8345 767.79 -31.5536 774.96 -15.038C782.13 1.47755 780.929 20.7477 772.533 41.4987C764.137 62.2519 748.557 84.4472 727.041 106.76C684.01 151.382 617.307 196.399 537.126 231.209C456.944 266.018 378.509 284.012 316.526 284.979C285.533 285.463 258.68 281.689 237.784 273.652C216.892 265.617 201.993 253.336 194.823 236.82C187.653 220.305 188.854 201.034 197.25 180.283C205.646 159.53 221.226 137.335 242.742 115.023C285.772 70.3997 352.476 25.3832 432.657 -9.42648Z" stroke="url(#paint29_linear_2921_12348)"/>
<path d="M434.764 -10.32C515.541 -43.725 594.278 -60.3467 656.269 -60.2321C687.265 -60.1747 714.049 -55.933 734.801 -47.533C755.55 -39.1339 770.232 -26.5948 777.113 -9.95666C783.993 6.68152 782.456 25.9278 773.7 46.5291C764.942 67.1325 748.978 89.0526 727.076 110.986C683.273 154.851 615.794 198.697 535.017 232.102C454.24 265.507 375.503 282.128 313.513 282.014C282.516 281.956 255.733 277.715 234.981 269.315C214.231 260.916 199.55 248.377 192.669 231.738C185.788 215.1 187.325 195.854 196.082 175.253C204.839 154.649 220.804 132.729 242.706 110.796C286.509 66.9305 353.988 23.085 434.764 -10.32Z" stroke="url(#paint30_linear_2921_12348)"/>
<path d="M436.887 -11.1764C518.235 -43.1665 597.25 -58.4115 659.229 -57.215C690.22 -56.6168 716.925 -51.9083 737.527 -43.1474C758.127 -34.3874 772.588 -21.594 779.177 -4.83829C785.766 11.9174 783.894 31.134 774.779 51.5793C765.663 72.0268 749.318 93.6649 727.037 115.213C682.475 158.307 614.241 200.968 532.894 232.958C451.546 264.948 372.531 280.193 310.552 278.997C279.561 278.398 252.856 273.69 232.254 264.929C211.654 256.169 197.193 243.376 190.604 226.62C184.015 209.864 185.888 190.648 195.002 170.202C204.118 149.755 220.463 128.117 242.744 106.569C287.306 63.475 355.54 20.8138 436.887 -11.1764Z" stroke="url(#paint31_linear_2921_12348)"/>
<path d="M439.026 -11.9954C520.919 -42.561 600.188 -56.4247 662.137 -54.1467C693.113 -53.0077 719.732 -47.8338 740.178 -38.7147C760.622 -29.5966 774.857 -16.5527 781.153 0.315463C787.449 17.1836 785.241 36.3646 775.771 56.6477C766.299 76.933 749.58 98.2826 726.925 119.438C681.618 161.748 612.65 203.212 530.757 233.777C448.864 264.343 369.594 278.207 307.646 275.929C276.67 274.79 250.051 269.616 229.605 260.497C209.161 251.378 194.926 238.335 188.63 221.466C182.334 204.598 184.542 185.417 194.012 165.134C203.483 144.849 220.203 123.499 242.858 102.344C288.164 60.034 357.132 18.5702 439.026 -11.9954Z" stroke="url(#paint32_linear_2921_12348)"/>
<path d="M441.177 -12.7772C523.591 -41.9089 603.091 -54.3871 664.99 -51.0283C695.941 -49.3488 722.466 -43.7112 742.75 -34.2366C763.031 -24.7631 777.037 -11.4728 783.037 5.50272C789.038 22.4782 786.495 41.6177 776.673 61.7324C766.849 81.8493 749.759 102.904 726.739 123.661C680.7 165.173 611.019 205.427 528.605 234.559C446.191 263.691 366.692 276.169 304.792 272.81C273.841 271.131 247.316 265.493 227.032 256.018C206.751 246.545 192.746 233.255 186.745 216.279C180.745 199.304 183.287 180.164 193.109 160.049C202.933 139.932 220.023 118.878 243.043 98.1208C289.082 56.6083 358.763 16.3544 441.177 -12.7772Z" stroke="url(#paint33_linear_2921_12348)"/>
<path d="M443.341 -13.5215C526.251 -41.2105 605.956 -52.2993 667.788 -47.8607C698.705 -45.6413 725.127 -39.5416 745.243 -29.7145C765.356 -19.8884 779.127 -6.35572 784.83 10.7219C790.533 27.7995 787.658 46.8917 777.485 66.832C767.312 86.7744 749.857 107.527 726.478 127.88C679.723 168.582 609.35 207.614 526.439 235.303C443.529 262.992 363.824 274.081 301.993 269.642C271.076 267.423 244.653 261.323 224.538 251.496C204.425 241.67 190.654 228.137 184.95 211.059C179.247 193.982 182.123 174.89 192.295 154.949C202.469 135.007 219.923 114.254 243.302 93.9017C290.058 53.199 360.431 14.1674 443.341 -13.5215Z" stroke="url(#paint34_linear_2921_12348)"/>
<path d="M445.519 -14.2274C528.9 -40.4652 608.786 -50.1612 670.531 -44.6442C701.404 -41.8856 727.717 -35.3257 747.657 -25.149C767.596 -14.9734 781.129 -1.20244 786.533 15.9721C791.938 33.1467 788.729 52.1858 778.21 71.9454C767.69 91.7072 749.876 112.153 726.146 132.094C678.686 171.974 607.643 209.772 524.262 236.009C440.881 262.247 360.995 271.943 299.251 266.426C268.377 263.667 242.065 257.108 222.124 246.931C202.186 236.755 188.653 222.984 183.248 205.81C177.844 188.635 181.053 169.596 191.571 149.836C202.091 130.075 219.905 109.629 243.636 89.6883C291.095 49.8078 362.139 12.0103 445.519 -14.2274Z" stroke="url(#paint35_linear_2921_12348)"/>
<path d="M447.71 -14.8954C531.536 -39.6739 611.579 -47.9743 673.218 -41.3805C704.038 -38.0835 730.232 -31.0654 749.992 -20.5423C769.75 -10.0203 783.041 3.98481 788.144 21.2511C793.248 38.5173 789.708 57.4975 778.846 77.0706C767.983 96.6458 749.814 116.777 725.739 136.301C677.591 175.347 605.899 211.899 522.073 236.678C438.247 261.456 358.204 269.756 296.565 263.163C265.744 259.866 239.551 252.848 219.791 242.324C200.033 231.802 186.742 217.797 181.638 200.531C176.535 183.265 180.075 164.285 190.937 144.712C201.8 125.136 219.968 105.005 244.043 85.4812C292.191 46.435 363.884 9.88314 447.71 -14.8954Z" stroke="url(#paint36_linear_2921_12348)"/>
<path d="M449.91 -15.5254C534.156 -38.8372 614.332 -45.7394 675.846 -38.0708C706.605 -34.2364 732.672 -26.7622 752.245 -15.8958C771.816 -5.03061 784.86 9.20429 789.662 26.557C794.464 43.9097 790.593 62.8252 779.391 82.2057C768.188 101.588 749.671 121.4 725.259 140.5C676.437 178.7 604.117 213.995 519.872 237.307C435.626 260.619 355.45 267.521 293.936 259.852C263.177 256.018 237.11 248.544 217.537 237.677C197.965 226.812 184.921 212.577 180.12 195.225C175.318 177.872 179.189 158.956 190.391 139.576C201.594 120.193 220.111 100.382 244.523 81.2814C293.345 43.0815 365.664 7.7864 449.91 -15.5254Z" stroke="url(#paint37_linear_2921_12348)"/>
<path d="M452.122 -16.1167C536.762 -37.9546 617.046 -43.4565 678.417 -34.7156C709.104 -30.3449 735.036 -22.417 754.417 -11.2106C773.796 -0.00547562 786.59 14.4549 791.088 31.8888C795.586 49.3226 791.385 68.1677 779.847 87.3498C768.307 106.534 749.447 126.019 724.706 144.691C675.224 182.033 602.3 216.06 517.66 237.898C433.021 259.736 352.736 265.238 291.365 256.497C260.678 252.126 234.746 244.198 215.365 232.992C195.986 221.787 183.193 207.327 178.694 189.893C174.196 172.459 178.397 153.614 189.935 134.432C201.475 115.248 220.335 95.7626 245.077 77.0909C294.558 39.7488 367.482 5.72126 452.122 -16.1167Z" stroke="url(#paint38_linear_2921_12348)"/>
<path d="M454.343 -16.6691C539.351 -37.0266 619.719 -41.1264 680.928 -31.3158C711.534 -26.4102 737.325 -18.0309 756.507 -6.48797C775.687 5.05365 788.227 19.7351 792.42 37.2448C796.613 54.7545 792.084 73.5234 780.213 92.5012C768.34 111.481 749.143 130.634 724.079 148.871C673.954 185.344 600.447 218.093 515.439 238.451C430.431 258.808 350.063 262.908 288.853 253.098C258.248 248.192 232.457 239.813 213.275 228.27C194.095 216.728 181.555 202.047 177.362 184.537C173.169 167.027 177.698 148.258 189.569 129.281C201.442 110.301 220.639 91.1479 245.703 72.9108C295.828 36.438 369.335 3.68836 454.343 -16.6691Z" stroke="url(#paint39_linear_2921_12348)"/>
<path d="M456.574 -17.183C541.925 -36.0537 622.352 -38.7504 683.381 -27.8729C713.896 -22.434 739.537 -13.6058 758.514 -1.72991C777.49 10.1447 789.772 25.0428 793.659 42.623C797.545 60.2032 792.69 78.8902 780.489 97.6579C768.287 116.428 748.758 135.243 723.38 153.039C672.626 188.632 598.558 220.094 513.208 238.964C427.858 257.835 347.43 260.532 286.402 249.654C255.886 244.216 230.246 235.387 211.268 223.511C192.292 211.637 180.011 196.739 176.124 179.159C172.237 161.578 177.093 142.891 189.294 124.124C201.496 105.354 221.024 86.5389 246.402 68.742C297.157 33.1496 371.224 1.68779 456.574 -17.183Z" stroke="url(#paint40_linear_2921_12348)"/>
<path d="M458.814 -17.6579C544.48 -35.0362 624.942 -36.3288 685.772 -24.3879C716.188 -18.4172 741.67 -9.1429 760.438 3.06241C779.204 15.2664 791.223 30.3765 794.803 48.0219C798.382 65.6673 793.201 84.2667 780.675 102.819C768.147 121.373 748.293 139.844 722.608 157.195C671.24 191.896 596.635 222.061 510.968 239.439C425.302 256.817 344.84 258.11 284.01 246.169C253.594 240.198 228.112 230.924 209.344 218.719C190.578 206.515 178.559 191.405 174.979 173.759C171.4 156.114 176.581 137.514 189.107 118.962C201.635 100.408 221.489 81.9373 247.174 64.586C298.542 29.8848 373.147 -0.279563 458.814 -17.6579Z" stroke="url(#paint41_linear_2921_12348)"/>
<path d="M461.061 -18.0933C547.018 -33.9739 627.49 -33.862 688.102 -20.8613C718.41 -14.3607 743.726 -4.64305 762.278 7.88794C780.828 20.4176 792.582 35.7352 795.853 53.4403C799.124 71.1455 793.619 89.6516 780.77 107.982C767.921 126.315 747.748 144.436 721.764 161.337C669.798 195.136 594.678 223.994 508.721 239.875C422.764 255.755 342.292 255.643 281.68 242.643C251.372 236.142 226.056 226.424 207.504 213.893C188.954 201.364 177.2 186.046 173.929 168.341C170.658 150.636 176.163 132.13 189.012 113.799C201.862 95.4668 222.035 77.3449 248.018 60.4445C299.984 26.645 375.104 -2.21268 461.061 -18.0933Z" stroke="url(#paint42_linear_2921_12348)"/>
<path d="M463.315 -18.4895C549.536 -32.8676 629.994 -31.3512 690.37 -17.2947C720.559 -10.2662 745.702 -0.108187 764.033 12.7447C782.361 25.5961 793.846 41.1165 796.807 58.8761C799.769 76.6356 793.942 95.0429 780.776 113.146C767.608 131.252 747.121 149.019 720.847 165.463C668.299 198.351 592.687 225.893 506.466 240.271C420.245 254.649 339.786 253.133 279.411 239.076C249.221 232.047 224.078 221.889 205.748 209.037C187.42 196.185 175.935 180.665 172.973 162.905C170.012 145.146 175.839 126.738 189.005 108.635C202.173 90.5295 222.659 72.7625 248.934 56.3181C301.482 23.4308 377.094 -4.11153 463.315 -18.4895Z" stroke="url(#paint43_linear_2921_12348)"/>
<path d="M465.577 -18.8464C552.036 -31.7174 632.456 -28.7972 692.577 -13.6891C722.639 -6.13475 747.601 4.46052 765.704 17.6313C783.805 30.8007 795.017 46.5192 797.668 64.3277C800.32 82.1362 794.172 100.439 780.692 118.31C767.21 136.183 746.417 153.59 719.859 169.573C666.745 201.538 590.664 227.757 504.205 240.628C417.746 253.499 337.327 250.578 277.205 235.47C247.144 227.916 222.182 217.321 204.078 204.15C185.977 190.981 174.765 175.262 172.114 157.454C169.463 139.645 175.61 121.342 189.09 103.471C202.572 85.5985 223.366 68.1917 249.923 52.2085C303.037 20.2432 379.119 -5.97531 465.577 -18.8464Z" stroke="url(#paint44_linear_2921_12348)"/>
<path d="M467.844 -19.1635C554.515 -30.5237 634.871 -26.2004 694.719 -10.0453C724.645 -1.96749 749.418 9.06181 767.289 22.5466C785.157 36.0298 796.093 51.9416 798.433 69.7937C800.773 87.6458 794.307 105.838 780.517 123.471C766.726 141.106 745.632 158.147 718.799 173.665C665.136 204.698 588.608 229.585 501.938 240.945C415.268 252.305 334.911 247.982 275.063 231.827C245.137 223.749 220.364 212.72 202.494 199.235C184.625 185.752 173.689 169.84 171.349 151.988C169.009 134.136 175.475 115.943 189.265 98.3103C203.057 80.6754 224.151 63.6342 250.983 48.1168C304.647 17.0834 381.174 -7.80332 467.844 -19.1635Z" stroke="url(#paint45_linear_2921_12348)"/>
<path d="M470.116 -19.441C556.972 -29.2868 637.24 -23.5617 696.798 -6.36466C726.577 2.23422 751.154 13.6942 768.787 27.4888C786.418 41.2818 797.074 57.382 799.102 75.2722C801.13 93.1624 794.348 111.24 780.252 128.629C766.155 146.021 744.767 162.691 717.667 177.738C663.47 207.83 586.52 231.377 499.665 241.223C412.81 251.069 332.541 245.344 272.984 228.147C243.204 219.548 218.627 208.088 200.994 194.293C183.364 180.5 172.707 164.4 170.679 146.51C168.651 128.62 175.433 110.543 189.529 93.153C203.626 75.7616 225.014 59.091 252.114 44.0443C306.311 13.9522 383.261 -9.59513 470.116 -19.441Z" stroke="url(#paint46_linear_2921_12348)"/>
<path d="M472.394 -19.6791C559.408 -28.0076 639.564 -20.8825 698.812 -2.64862C728.438 6.46868 752.811 18.3558 770.2 32.456C787.587 46.5547 797.961 62.8384 799.677 80.7613C801.392 98.6842 794.296 116.64 779.898 133.781C765.5 150.924 743.824 167.219 716.466 181.79C661.752 210.932 584.403 233.132 497.389 241.461C410.375 249.79 330.219 242.664 270.97 224.431C241.345 215.313 216.972 203.426 199.583 189.326C182.196 175.227 171.821 158.943 170.106 141.021C168.39 123.098 175.487 105.142 189.884 88.0009C204.283 70.8581 225.959 54.5634 253.317 39.9919C308.031 10.8502 385.38 -11.3506 472.394 -19.6791Z" stroke="url(#paint47_linear_2921_12348)"/>
<path d="M474.674 -19.8776C561.82 -26.6862 641.84 -18.1633 700.761 1.10182C730.223 10.7348 754.385 23.0455 771.525 37.447C788.664 51.847 798.752 68.3093 800.154 86.2594C801.557 104.209 794.148 122.039 779.453 138.926C764.758 155.815 742.801 171.729 715.193 185.82C659.979 214.003 582.254 234.85 495.108 241.659C407.962 248.468 327.942 239.945 269.021 220.68C239.559 211.047 215.397 198.736 198.257 184.334C181.118 169.934 171.03 153.472 169.627 135.522C168.225 117.572 175.634 99.7425 190.328 82.8555C205.024 65.9666 226.981 50.0527 254.589 35.9609C309.803 7.7785 387.528 -13.0689 474.674 -19.8776Z" stroke="url(#paint48_linear_2921_12348)"/>
<path d="M476.958 -20.0354C564.21 -25.3221 644.068 -15.4039 702.644 4.8866C731.933 15.0322 755.877 27.7628 772.763 42.4613C789.648 57.1582 799.447 73.794 800.536 91.7658C801.625 109.738 793.906 127.435 778.919 144.063C763.931 160.693 741.7 176.221 713.85 189.829C658.153 217.043 580.076 236.531 492.824 241.818C405.573 247.105 325.714 237.186 267.138 216.896C237.849 206.75 213.905 194.02 197.019 179.321C180.134 164.624 170.335 147.989 169.246 130.017C168.157 112.045 175.876 94.3475 190.863 77.7195C205.851 61.0897 228.082 45.5614 255.932 31.9536C311.629 4.73908 389.706 -14.7487 476.958 -20.0354Z" stroke="url(#paint49_linear_2921_12348)"/>
<path d="M479.244 -20.1541C566.575 -23.9172 646.248 -12.6068 704.461 8.70287C733.569 19.3581 757.286 32.5046 773.914 47.4956C790.539 62.4849 800.047 79.2892 800.822 97.2773C801.597 115.265 793.57 132.825 778.296 149.189C763.02 165.555 740.521 180.693 712.438 193.813C656.274 220.051 577.868 238.173 490.538 241.936C403.207 245.699 323.534 234.389 265.321 213.079C236.213 202.424 212.496 189.278 195.868 174.287C179.243 159.297 169.735 142.493 168.96 124.505C168.185 106.517 176.212 88.9568 191.486 72.5929C206.762 56.2272 229.261 41.0892 257.344 27.9695C313.508 1.73124 391.914 -16.3909 479.244 -20.1541Z" stroke="url(#paint50_linear_2921_12348)"/>
<path d="M481.532 -20.2328C568.915 -22.4713 648.379 -9.77209 706.211 12.5503C735.128 23.712 758.613 37.2704 774.976 52.5492C791.338 67.8264 800.55 84.7941 801.012 102.793C801.473 120.792 793.141 138.209 777.583 154.304C762.023 170.401 739.264 185.144 710.956 197.771C654.343 223.025 575.633 239.776 488.25 242.015C400.867 244.253 321.403 231.554 263.571 209.232C234.654 198.07 211.169 184.512 194.806 169.233C178.445 153.955 169.232 136.988 168.771 118.989C168.31 100.99 176.642 83.5728 192.199 67.478C207.759 51.3813 230.519 36.6383 258.826 24.0108C315.44 -1.24332 394.149 -17.9944 481.532 -20.2328Z" stroke="url(#paint51_linear_2921_12348)"/>
<path d="M483.821 -20.2713C571.23 -20.9843 650.461 -6.90026 707.894 16.4281C736.612 28.0927 759.856 42.0589 775.951 57.621C792.043 73.1814 800.958 90.3073 801.105 108.312C801.252 126.316 792.617 143.585 776.781 159.406C760.943 175.228 737.929 189.572 709.406 201.703C652.36 225.966 573.37 241.34 485.961 242.054C398.553 242.767 319.322 228.683 261.889 205.354C233.171 193.69 209.926 179.723 193.832 164.161C177.74 148.601 168.825 131.475 168.678 113.471C168.531 95.4666 177.166 78.1975 193.002 62.3766C208.84 46.554 231.854 32.2104 260.377 20.0788C317.423 -4.18338 396.413 -19.5582 483.821 -20.2713Z" stroke="url(#paint52_linear_2921_12348)"/>
<path d="M486.111 -20.2701C573.518 -19.4576 652.491 -3.99292 709.509 20.3342C738.019 32.4982 761.016 46.868 776.836 62.7086C792.654 78.5475 801.269 95.8264 801.102 113.83C800.935 131.834 792 148.95 775.89 164.492C759.778 180.036 736.518 193.976 707.786 205.608C650.326 228.871 571.08 242.865 483.672 242.052C396.264 241.24 317.292 225.775 260.274 201.448C231.764 189.284 208.767 174.914 192.947 159.073C177.129 143.234 168.514 125.955 168.681 107.951C168.848 89.9475 177.783 72.8317 193.893 57.2896C210.005 41.7458 233.265 27.8061 261.996 16.1742C319.456 -7.08878 398.703 -21.0827 486.111 -20.2701Z" stroke="url(#paint53_linear_2921_12348)"/>
<path d="M488.399 -20.2289C575.78 -17.8911 654.47 -1.05047 711.055 24.268C739.348 36.9278 762.091 51.6967 777.632 67.811C793.171 83.9236 801.484 101.35 801.002 119.349C800.521 137.347 791.288 154.304 774.91 169.563C758.529 184.823 735.029 198.355 706.099 209.483C648.242 231.74 568.763 244.349 481.383 242.011C394.003 239.673 315.312 222.832 258.728 197.514C230.434 184.854 207.691 170.085 192.15 153.971C176.611 137.858 168.299 120.432 168.78 102.433C169.262 84.4349 178.494 67.4777 194.873 52.2191C211.253 36.9589 234.753 23.4272 263.683 12.2985C321.54 -9.9581 401.019 -22.5668 488.399 -20.2289Z" stroke="url(#paint54_linear_2921_12348)"/>
<path d="M490.687 -20.1476C578.013 -16.2851 656.398 1.92627 712.532 28.2285C740.6 41.3801 763.082 56.5436 778.339 72.9267C793.595 89.308 801.602 106.877 800.806 124.864C800.011 142.851 790.484 159.645 773.841 174.615C757.197 189.587 733.464 202.707 704.345 213.329C646.108 234.572 566.421 245.792 479.095 241.93C391.769 238.067 313.384 219.856 257.25 193.554C229.182 180.402 206.7 165.238 191.443 148.855C176.187 132.474 168.18 114.905 168.976 96.9178C169.771 78.9306 179.298 62.1371 195.941 47.1667C212.585 32.1946 236.318 19.0752 265.437 8.45304C323.674 -12.7904 403.361 -24.0101 490.687 -20.1476Z" stroke="url(#paint55_linear_2921_12348)"/>
<path d="M492.973 -20.0265C580.219 -14.6405 658.274 4.93613 713.94 32.214C741.775 45.8535 763.988 61.4071 778.957 78.0539C793.925 94.699 801.624 112.405 800.515 130.376C799.405 148.346 789.587 164.971 772.686 179.649C755.782 194.328 731.824 207.031 702.524 217.143C643.925 237.367 564.055 247.195 476.809 241.809C389.564 236.423 311.509 216.846 255.843 189.568C228.008 175.929 205.795 160.375 190.825 143.728C175.858 127.083 168.159 109.377 169.268 91.4065C170.378 73.4359 180.196 56.8112 197.097 42.1335C214 27.4543 237.958 14.751 267.259 4.63868C325.858 -15.5852 405.728 -25.4124 492.973 -20.0265Z" stroke="url(#paint56_linear_2921_12348)"/>
<path d="M495.256 -19.8658C582.394 -12.958 660.096 7.9779 715.278 36.2231C742.87 50.3463 764.808 66.2852 779.485 83.1908C794.16 100.095 801.549 117.932 800.126 135.881C798.703 153.829 788.596 170.28 771.441 184.661C754.284 199.043 730.108 211.326 700.636 220.925C641.693 240.123 561.663 248.555 474.525 241.647C387.387 234.739 309.685 213.804 254.504 185.558C226.912 171.435 204.973 155.496 190.296 138.591C175.622 121.687 168.233 103.849 169.656 85.9008C171.078 67.9523 181.185 51.5015 198.34 37.121C215.497 22.739 239.673 10.4558 269.146 0.856358C328.089 -18.3417 408.118 -26.7736 495.256 -19.8658Z" stroke="url(#paint57_linear_2921_12348)"/>
<path d="M497.537 -19.6646C584.542 -11.2371 661.866 11.0517 716.546 40.2556C743.888 54.8582 765.545 71.1776 779.924 88.3367C794.302 105.494 801.378 123.458 799.642 141.379C797.906 159.3 787.514 175.572 770.11 189.651C752.705 203.731 728.319 215.59 698.683 224.674C639.414 242.84 559.249 249.874 472.245 241.447C385.241 233.019 307.917 210.731 253.236 181.527C225.895 166.924 204.238 150.605 189.858 133.445C175.481 116.288 168.404 98.3242 170.14 80.4033C171.876 62.4823 182.269 46.2104 199.672 32.1316C217.077 18.0512 241.464 6.19175 271.099 -2.89183C330.368 -21.0583 410.533 -28.0922 497.537 -19.6646Z" stroke="url(#paint58_linear_2921_12348)"/>
<path d="M499.814 -19.4244C586.658 -9.47968 663.582 14.1552 717.744 44.309C744.826 59.3865 766.195 76.0814 780.273 93.4889C794.349 110.894 801.111 128.979 799.062 146.867C797.014 164.755 786.339 180.843 768.693 194.616C751.044 208.391 726.454 219.823 696.665 228.388C637.088 245.517 556.813 251.151 469.969 241.206C383.125 231.261 306.201 207.626 252.039 177.473C224.957 162.395 203.587 145.7 189.51 128.293C175.434 110.887 168.672 92.8023 170.72 74.9144C172.769 57.0265 183.444 40.9385 201.09 27.1655C218.738 13.391 243.328 1.95899 273.118 -6.606C332.695 -23.7353 412.97 -29.369 499.814 -19.4244Z" stroke="url(#paint59_linear_2921_12348)"/>
<path d="M502.086 -19.1438C588.743 -7.68502 665.242 17.2887 718.87 48.3832C745.685 63.9311 766.76 80.9964 780.531 98.6469C794.301 116.295 800.746 134.496 798.386 152.345C796.026 170.194 785.072 186.094 767.188 199.557C749.302 213.021 724.516 224.022 694.581 232.066C634.715 248.153 554.353 252.385 467.696 240.926C381.039 229.467 304.54 204.493 250.912 173.399C224.097 157.851 203.022 140.786 189.251 123.135C175.48 105.487 169.035 87.2865 171.396 69.4371C173.756 51.5877 184.71 35.6884 202.594 22.2255C220.48 8.76106 245.266 -2.24004 275.2 -10.2838C335.067 -26.3707 415.428 -30.6026 502.086 -19.1438Z" stroke="url(#paint60_linear_2921_12348)"/>
<path d="M504.352 -18.8239C590.796 -5.85449 666.848 20.4505 719.925 52.4763C746.465 68.4897 767.238 85.9202 780.7 103.808C794.16 121.695 800.286 140.004 797.615 157.81C794.944 175.615 783.714 191.321 765.597 204.47C747.479 217.62 722.505 228.187 692.435 235.707C632.296 250.747 551.873 253.575 465.429 240.606C378.985 227.637 302.934 201.332 249.856 169.306C223.317 153.292 202.543 135.862 189.082 117.974C175.622 100.087 169.495 81.7777 172.167 63.9722C174.838 46.1667 186.068 30.461 204.185 17.3122C222.303 4.16202 247.277 -6.40484 277.347 -13.925C337.486 -28.9646 417.908 -31.7934 504.352 -18.8239Z" stroke="url(#paint61_linear_2921_12348)"/>
<path d="M506.614 -18.4646C592.818 -3.98845 668.399 23.6399 720.909 56.587C747.165 73.0612 767.631 90.8516 780.779 108.972C793.924 127.09 799.731 145.504 796.749 163.26C793.767 181.017 782.265 196.524 763.922 209.355C745.577 222.187 720.422 232.316 690.225 239.31C629.833 253.298 549.373 254.723 463.169 240.247C376.964 225.77 301.383 198.142 248.873 165.195C222.617 148.721 202.151 130.93 189.004 112.81C175.858 94.6916 170.052 76.2777 173.034 58.5215C176.015 40.7653 187.518 25.258 205.861 12.4274C224.206 -0.404551 249.36 -10.5339 279.557 -17.5281C339.949 -31.5159 420.409 -32.9407 506.614 -18.4646Z" stroke="url(#paint62_linear_2921_12348)"/>
<path d="M508.868 -18.0656C594.807 -2.08724 669.894 26.8559 721.821 60.7145C747.786 77.6445 767.938 95.7893 780.767 114.136C793.595 132.481 799.079 150.994 795.787 168.695C792.496 186.397 780.725 201.701 762.161 214.209C743.595 226.719 718.267 236.408 687.953 242.874C627.326 255.806 546.853 255.826 460.915 239.848C374.976 223.869 299.888 194.926 247.961 161.068C221.997 144.138 201.844 125.993 189.015 107.646C176.188 89.3008 170.704 70.7884 173.995 53.0869C177.286 35.3855 189.058 20.0813 207.622 7.57279C226.188 -4.93708 251.515 -14.6259 281.83 -21.092C342.457 -34.0237 422.929 -34.044 508.868 -18.0656Z" stroke="url(#paint63_linear_2921_12348)"/>
<path d="M511.114 -17.6276C596.761 -0.151837 671.332 30.0974 722.66 64.8571C748.325 82.2376 768.158 100.731 780.665 119.3C793.17 137.866 798.33 156.471 794.731 174.112C791.131 191.754 779.094 206.85 760.315 219.033C741.533 231.217 716.04 240.462 685.618 246.398C624.775 258.27 544.314 256.885 458.667 239.41C373.02 221.934 298.449 191.685 247.121 156.925C221.456 139.544 201.623 121.051 189.116 102.483C176.611 83.9164 171.451 65.3111 175.051 47.6698C178.65 30.0285 190.687 14.932 209.467 2.74942C228.248 -9.43452 253.741 -18.6799 284.164 -24.6159C345.007 -36.4876 425.467 -35.1034 511.114 -17.6276Z" stroke="url(#paint64_linear_2921_12348)"/>
<path d="M513.354 -17.1505C598.682 1.81739 672.714 33.3635 723.428 69.0136C748.786 86.8394 768.293 105.676 780.474 124.46C792.653 143.242 797.487 161.934 793.58 179.51C789.674 197.086 777.375 211.97 758.386 223.823C739.395 235.677 713.744 244.476 683.223 249.88C622.182 260.688 541.757 257.9 456.429 238.932C371.1 219.964 297.068 188.418 246.354 152.768C220.996 134.942 201.49 116.105 189.309 97.3218C177.129 78.5402 172.295 59.8476 176.202 42.2719C180.109 24.6961 192.407 9.812 211.396 -2.04101C230.388 -13.8953 256.038 -22.6943 286.56 -28.0985C347.601 -38.9065 428.025 -36.1184 513.354 -17.1505Z" stroke="url(#paint65_linear_2921_12348)"/>
<path d="M515.584 -16.6342C600.569 3.82001 674.038 36.6533 724.122 73.1831C749.165 91.4487 768.341 110.623 780.192 129.617C792.042 148.608 796.549 167.382 792.336 184.887C788.123 202.392 775.567 217.059 756.373 228.579C737.178 240.1 711.378 248.45 680.767 253.321C619.546 263.062 539.183 258.87 454.198 238.416C369.214 217.962 295.744 185.129 245.66 148.599C220.617 130.333 201.442 111.159 189.591 92.1653C177.741 73.174 173.233 54.3999 177.446 36.895C181.659 19.3901 194.216 4.72292 213.409 -6.79687C232.604 -18.3179 258.404 -26.668 289.016 -31.5386C350.236 -41.2797 430.599 -37.0883 515.584 -16.6342Z" stroke="url(#paint66_linear_2921_12348)"/>
<path d="M517.804 -16.0792C602.419 5.85506 675.305 39.9656 724.743 77.3639C749.464 96.0638 768.301 115.57 779.819 134.767C791.336 153.963 795.515 172.813 790.997 190.241C786.479 207.67 773.669 222.116 754.278 233.299C734.884 244.483 708.942 252.382 678.251 256.717C616.869 265.388 536.592 259.795 451.977 237.861C367.362 215.927 294.476 181.816 245.038 144.418C220.317 125.718 201.48 106.212 189.962 87.0143C178.445 67.8191 174.266 48.9692 178.784 31.5405C183.302 14.1118 196.112 -0.33401 215.504 -11.5171C234.897 -22.7014 260.839 -30.5999 291.53 -34.9356C352.912 -43.6067 433.189 -38.0134 517.804 -16.0792Z" stroke="url(#paint67_linear_2921_12348)"/>
<path d="M520.016 -15.4853C604.235 7.92232 676.514 43.2997 725.292 81.5551C749.683 100.684 768.177 120.516 779.358 139.911C790.538 159.304 794.388 178.224 789.566 195.572C784.745 212.919 771.684 227.139 752.101 237.982C732.515 248.826 706.439 256.27 675.677 260.07C614.153 267.668 533.985 260.675 449.766 237.267C365.547 213.86 293.268 178.482 244.49 140.227C220.099 121.098 201.605 101.266 190.424 81.8708C179.244 62.4775 175.394 43.5576 180.216 26.2104C185.037 8.86318 198.098 -5.35685 217.681 -16.1998C237.267 -27.0439 263.343 -34.4885 294.105 -38.2879C355.629 -45.8864 435.797 -38.893 520.016 -15.4853Z" stroke="url(#paint68_linear_2921_12348)"/>
<path d="M522.216 -14.8529C606.014 10.0211 677.665 46.6545 725.768 85.7554C749.821 105.307 767.966 125.459 778.807 145.046C789.647 164.632 793.166 183.616 788.042 200.876C782.919 218.137 769.612 232.127 749.842 242.626C730.07 253.127 703.869 260.115 673.044 263.377C611.398 269.901 531.364 261.509 447.566 236.635C363.769 211.761 292.118 175.128 244.014 136.027C219.962 116.476 201.816 96.3238 190.975 76.7363C180.136 57.1508 176.617 38.1666 181.74 20.9062C186.864 3.64576 200.17 -10.3442 219.94 -20.8437C239.712 -31.3443 265.914 -38.3326 296.738 -41.5946C358.385 -48.1182 438.418 -39.7268 522.216 -14.8529Z" stroke="url(#paint69_linear_2921_12348)"/>
<path d="M524.405 -14.1828C607.756 12.1498 678.756 50.0281 726.17 89.9626C749.878 109.931 767.669 130.396 778.166 150.17C788.662 169.942 791.849 188.984 786.425 206.153C781.001 223.321 767.453 237.077 747.503 247.23C727.55 257.384 701.231 263.914 670.354 266.637C608.603 272.084 528.728 262.297 445.377 235.964C362.026 209.632 291.026 171.753 243.612 131.819C219.905 111.851 202.114 91.3852 191.616 71.6114C181.12 51.8398 177.933 32.7971 183.357 15.6287C188.781 -1.53972 202.33 -15.2953 222.28 -25.4482C242.232 -35.6022 268.551 -42.1321 299.428 -44.8556C361.179 -50.3024 441.054 -40.5154 524.405 -14.1828Z" stroke="url(#paint70_linear_2921_12348)"/>
<path d="M526.581 -13.4741C609.46 14.3092 679.788 53.4208 726.498 94.1768C749.854 114.556 767.285 135.328 777.435 155.282C787.585 175.234 790.439 194.33 784.716 211.401C778.994 228.472 765.207 241.989 745.083 251.792C724.956 261.596 698.527 267.666 667.607 269.85C605.771 274.218 526.079 263.039 443.2 235.256C360.321 207.472 289.993 168.361 243.283 127.605C219.927 107.226 202.496 86.4531 192.346 66.4992C182.196 46.5474 179.342 27.4519 185.065 10.3808C190.788 -6.69032 204.574 -20.2073 224.698 -30.0105C244.825 -39.8147 271.254 -45.8844 302.174 -48.0686C364.01 -52.4368 443.702 -41.2573 526.581 -13.4741Z" stroke="url(#paint71_linear_2921_12348)"/>
<path d="M528.746 -12.7273C611.127 16.4981 680.762 56.8312 726.753 98.3961C749.75 119.179 766.816 140.253 776.617 160.381C786.416 180.507 788.937 199.65 782.917 216.618C776.897 233.587 762.877 246.861 742.584 256.312C722.29 265.763 695.759 271.371 664.806 273.015C602.902 276.303 523.417 263.735 441.036 234.509C358.655 205.284 289.02 164.951 243.029 123.386C220.032 102.603 202.966 81.5286 193.166 61.4005C183.366 41.2746 180.845 22.1322 186.865 5.16359C192.885 -11.8051 206.905 -25.0794 227.198 -34.5298C247.492 -43.9813 274.024 -49.5888 304.976 -51.233C366.88 -54.5214 446.365 -41.9528 528.746 -12.7273Z" stroke="url(#paint72_linear_2921_12348)"/>
<path d="M530.896 -11.9433C612.755 18.7154 681.676 60.2577 726.934 102.619C749.565 123.8 766.26 145.169 775.708 165.465C785.155 185.759 787.341 204.942 781.026 221.803C774.711 238.664 760.461 251.692 740.007 260.787C719.551 269.883 692.925 275.026 661.949 276.13C599.997 278.338 520.744 264.384 438.885 233.725C357.027 203.066 288.106 161.524 242.847 119.163C220.217 97.9812 203.522 76.6126 194.073 56.3165C184.626 36.0227 182.441 16.8393 188.756 -0.0217443C195.071 -16.8827 209.321 -29.9104 229.775 -39.0052C250.231 -48.1011 276.856 -53.2447 307.833 -54.3485C369.784 -56.556 449.038 -42.6021 530.896 -11.9433Z" stroke="url(#paint73_linear_2921_12348)"/>
<path d="M533.033 -11.1218C614.344 20.9609 682.529 63.6997 727.042 106.844C749.299 128.418 765.619 150.074 774.711 170.532C783.803 190.988 785.653 210.206 779.045 226.955C772.437 243.703 757.962 256.48 737.352 265.216C716.74 273.954 690.029 278.632 659.038 279.195C597.057 280.321 518.059 264.986 436.748 232.903C355.437 200.82 287.252 158.082 242.74 114.937C220.483 93.3639 204.163 71.7072 195.07 51.2493C185.979 30.7936 184.128 11.575 190.736 -5.17323C197.344 -21.9214 211.82 -34.6984 232.429 -43.4349C253.041 -52.1723 279.752 -56.8505 310.744 -57.4135C372.724 -58.5394 451.722 -43.2045 533.033 -11.1218Z" stroke="url(#paint74_linear_2921_12348)"/>
<path d="M535.156 -10.2627C615.894 23.2342 683.323 67.1565 727.076 111.071C748.953 133.03 764.893 154.968 773.627 175.581C782.36 196.193 783.875 215.441 776.976 232.071C770.076 248.701 755.38 261.224 734.621 269.599C713.86 277.976 687.071 282.187 656.075 282.209C594.084 282.253 515.366 265.542 434.627 232.045C353.888 198.548 286.46 154.626 242.707 110.711C220.83 88.7523 204.89 66.8141 196.156 46.2006C187.423 25.5894 185.908 6.34142 192.807 -10.2889C199.707 -26.9193 214.403 -39.4416 235.162 -47.8171C255.923 -56.1935 282.712 -60.4047 313.708 -60.4268C375.699 -60.4709 454.417 -43.7596 535.156 -10.2627Z" stroke="url(#paint75_linear_2921_12348)"/>
<path d="M537.262 -9.36708C617.404 25.5338 684.056 70.6262 727.036 115.298C748.527 137.635 764.081 159.848 772.454 180.611C780.826 201.371 782.005 220.643 774.816 237.15C767.627 253.657 752.715 265.921 731.813 273.933C710.909 281.946 684.051 285.689 653.059 285.17C591.077 284.132 512.662 266.05 432.52 231.149C352.378 196.248 285.726 151.156 242.747 106.484C221.256 84.1471 205.702 61.934 197.329 41.1713C188.957 20.4108 187.778 1.13927 194.967 -15.3681C202.155 -31.8755 217.068 -44.1395 237.97 -52.1514C258.874 -60.1642 285.732 -63.9073 316.724 -63.3883C378.706 -62.3505 457.121 -44.268 537.262 -9.36708Z" stroke="url(#paint76_linear_2921_12348)"/>
<path d="M539.353 -8.43438C618.874 27.8599 684.729 74.1086 726.922 119.524C748.02 142.232 763.184 164.713 771.193 185.619C779.202 206.522 780.044 225.812 772.568 242.191C765.093 258.57 749.968 270.572 728.93 278.218C707.889 285.865 680.97 289.139 649.991 288.079C588.037 285.96 509.95 266.511 430.429 230.217C350.909 193.923 285.054 147.674 242.86 102.259C221.763 79.5505 206.599 57.0693 198.589 36.1636C190.581 15.2602 189.738 -4.029 197.214 -20.4084C204.69 -36.7878 219.814 -48.7897 240.853 -56.4356C261.894 -64.0823 288.813 -67.3561 319.791 -66.2963C381.746 -64.177 459.833 -44.7286 539.353 -8.43438Z" stroke="url(#paint77_linear_2921_12348)"/>
<path d="M541.427 -7.46603C620.302 30.2105 685.34 77.6015 726.735 123.746C747.433 146.819 762.202 169.562 769.845 190.604C777.488 211.644 777.994 230.945 770.233 247.191C762.472 263.438 747.141 275.174 725.972 282.451C704.801 289.73 677.829 292.533 646.874 290.933C584.966 287.733 507.23 266.925 428.355 229.248C349.48 191.572 284.442 144.181 243.048 98.0359C222.35 74.9627 207.58 52.2203 199.937 31.178C192.295 10.138 191.789 -9.16291 199.549 -25.4094C207.31 -41.6558 222.641 -53.3919 243.81 -60.6694C264.981 -67.9478 291.954 -70.7513 322.909 -69.1511C384.817 -65.9507 462.552 -45.1426 541.427 -7.46603Z" stroke="url(#paint78_linear_2921_12348)"/>
<path d="M543.484 -6.46112C621.69 32.5862 685.891 81.1051 726.473 127.965C746.766 151.396 761.136 174.393 768.411 195.565C775.685 216.735 775.854 236.042 767.811 252.151C759.768 268.259 744.234 279.726 722.942 286.633C701.646 293.541 674.629 295.873 643.707 293.733C581.864 289.453 504.504 267.291 426.298 228.244C348.093 189.196 283.892 140.677 243.309 93.8173C223.017 70.3864 208.647 47.3897 201.372 26.2172C194.098 5.04705 193.929 -14.2598 201.972 -30.3683C210.015 -46.4768 225.548 -57.9436 246.841 -64.8506C268.136 -71.7583 295.153 -74.0906 326.076 -71.9504C387.918 -67.6702 465.279 -45.5085 543.484 -6.46112Z" stroke="url(#paint79_linear_2921_12348)"/>
<path d="M545.523 -5.42084C623.035 34.9854 686.379 84.6174 726.138 132.178C746.018 155.96 759.985 179.204 766.889 200.5C773.793 221.794 773.625 241.101 765.302 257.067C756.979 273.032 741.248 284.226 719.838 290.761C698.425 297.296 671.372 299.156 640.491 296.476C578.733 291.118 501.77 267.609 424.258 227.203C346.746 186.797 283.402 137.165 243.643 89.6035C223.763 65.8221 209.796 42.5781 202.892 21.2818C195.989 -0.0120695 196.157 -19.3189 204.48 -35.2846C212.802 -51.2503 228.534 -62.4442 249.944 -68.9785C271.356 -75.5136 298.41 -77.374 329.29 -74.6945C391.049 -69.3356 468.011 -45.8271 545.523 -5.42084Z" stroke="url(#paint80_linear_2921_12348)"/>
<path d="M547.544 -4.34489C624.339 37.408 686.808 88.1379 725.731 136.386C745.193 160.51 758.752 183.995 765.283 205.408C771.814 226.819 771.309 246.12 762.709 261.938C754.109 277.756 738.184 288.674 716.663 294.834C695.14 300.994 668.058 302.382 637.229 299.164C575.574 292.728 499.034 267.88 422.239 226.127C345.444 184.374 282.975 133.644 244.052 85.3965C224.59 61.2717 211.031 37.7875 204.5 16.374C197.969 -5.03716 198.474 -24.3381 207.074 -40.1561C215.674 -55.9742 231.599 -66.8918 253.12 -73.0515C274.643 -79.2118 301.725 -80.5998 332.554 -77.3818C394.209 -70.9458 470.749 -46.0978 547.544 -4.34489Z" stroke="url(#paint81_linear_2921_12348)"/>
<path d="M549.545 -3.23395C625.6 39.8528 687.174 91.6652 725.248 140.585C744.287 165.046 757.434 188.763 763.591 210.287C769.747 231.809 768.905 251.098 760.03 266.764C751.155 282.429 735.042 293.067 713.417 298.851C691.79 304.634 664.688 305.549 633.92 301.794C572.386 294.283 496.291 268.103 420.236 225.016C344.182 181.929 282.608 130.117 244.533 81.1971C225.495 56.7363 212.348 33.019 206.191 11.4948C200.035 -10.0271 200.877 -29.3162 209.752 -44.9818C218.627 -60.6473 234.739 -71.2854 256.365 -77.0685C277.992 -82.8523 305.094 -83.7674 335.862 -80.0118C397.396 -72.5008 473.491 -46.3207 549.545 -3.23395Z" stroke="url(#paint82_linear_2921_12348)"/>
<path d="M551.528 -2.08819C626.819 42.3194 687.479 95.1985 724.694 144.775C743.302 169.565 756.033 193.508 761.814 215.136C767.593 236.762 766.415 256.034 757.268 271.542C748.121 287.05 731.825 297.405 710.102 302.81C688.377 308.216 661.263 308.658 630.565 304.366C569.172 295.782 493.546 268.278 418.255 223.87C342.964 179.463 282.304 126.584 245.088 77.0068C226.48 52.2174 213.749 28.2743 207.969 6.64597C202.189 -14.9801 203.368 -34.2516 212.514 -49.7599C221.661 -65.2681 237.957 -75.6234 259.68 -81.0282C281.405 -86.4337 308.519 -86.8757 339.217 -82.5836C400.61 -73.9999 476.236 -46.4958 551.528 -2.08819Z" stroke="url(#paint83_linear_2921_12348)"/>
<path d="M553.489 -0.90811C627.994 44.8067 687.722 98.7364 724.066 148.955C742.239 174.065 754.55 198.227 759.952 219.953C765.354 241.677 763.839 260.925 754.423 276.271C745.006 291.617 728.533 301.687 706.719 306.711C684.903 311.737 657.785 311.706 627.167 306.878C565.933 297.225 490.798 268.405 416.293 222.69C341.789 176.975 282.061 123.045 245.717 72.8267C227.544 47.7164 215.232 23.5548 209.83 1.8288C204.429 -19.8948 205.944 -39.1429 215.36 -54.4891C224.776 -69.8354 241.25 -79.9046 263.064 -84.9295C284.88 -89.955 311.997 -89.9238 342.616 -85.0966C403.85 -75.4427 478.985 -46.6229 553.489 -0.90811Z" stroke="url(#paint84_linear_2921_12348)"/>
<path d="M555.43 0.306387C629.125 47.3145 687.903 102.278 723.365 153.124C741.097 178.547 752.985 202.92 758.007 224.737C763.028 246.552 761.177 265.77 751.495 280.95C741.812 296.13 725.165 305.91 703.267 310.553C681.366 315.197 654.254 314.693 623.724 309.332C562.668 298.611 488.048 268.484 414.352 221.476C340.657 174.468 281.879 119.504 246.417 68.6586C228.685 43.235 216.797 18.8621 211.775 -2.95481C206.754 -24.7694 208.604 -43.9881 218.287 -59.1676C227.969 -74.3472 244.617 -84.1274 266.515 -88.7709C288.415 -93.4148 315.528 -92.9103 346.057 -87.5496C407.114 -76.8284 481.734 -46.7018 555.43 0.306387Z" stroke="url(#paint85_linear_2921_12348)"/>
<path d="M557.349 1.55406C630.213 49.8412 688.022 105.822 722.592 157.279C739.877 183.008 751.338 207.585 755.978 229.486C760.618 251.385 758.433 270.568 748.486 285.577C738.54 300.585 721.725 310.073 699.749 314.334C677.771 318.595 650.671 317.617 620.24 311.724C559.38 299.939 485.297 268.515 412.433 220.228C339.569 171.941 281.76 115.959 247.19 64.5029C229.905 38.7736 218.444 14.197 213.804 -7.70423C209.164 -29.6031 211.349 -48.7866 221.296 -63.7949C231.242 -78.8031 248.057 -88.2913 270.033 -92.5519C292.011 -96.8129 319.111 -95.8353 349.542 -89.9426C410.402 -78.1575 484.485 -46.7331 557.349 1.55406Z" stroke="url(#paint86_linear_2921_12348)"/>
<path d="M559.246 2.83495C631.256 52.3864 688.08 109.368 721.746 161.42C738.58 187.447 749.61 212.22 753.867 234.199C758.124 256.175 755.604 275.318 745.398 290.15C735.191 304.983 718.213 314.176 696.166 318.052C674.117 321.929 647.038 320.479 616.715 314.056C556.069 301.21 482.546 268.498 410.536 218.946C338.526 169.395 281.703 112.413 248.036 60.3612C231.202 34.3341 220.172 9.56128 215.915 -12.4176C211.658 -34.3941 214.178 -53.5365 224.384 -68.369C234.591 -83.2014 251.569 -92.3946 273.616 -96.271C295.665 -100.148 322.744 -98.6974 353.068 -92.2745C413.713 -79.429 487.236 -46.7165 559.246 2.83495Z" stroke="url(#paint87_linear_2921_12348)"/>
<path d="M561.12 4.14932C632.255 54.95 688.075 112.915 720.828 165.546C737.205 191.863 747.801 216.825 751.674 238.875C755.547 260.922 752.693 280.018 742.229 294.67C731.765 309.322 714.629 318.217 692.518 321.708C670.404 325.2 643.355 323.277 613.148 316.326C552.737 302.424 479.795 268.433 408.661 217.632C337.527 166.832 281.706 108.867 248.954 56.2354C232.577 29.9186 221.981 4.95697 218.107 -17.0929C214.235 -39.1403 217.088 -58.2359 227.552 -72.8879C238.016 -87.5399 255.152 -96.4355 277.263 -99.9265C299.377 -103.418 326.426 -101.495 356.633 -94.5439C417.045 -80.642 489.986 -46.6513 561.12 4.14932Z" stroke="url(#paint88_linear_2921_12348)"/>
<path d="M562.972 5.49622C633.209 57.5306 688.009 116.461 719.838 169.656C735.753 196.255 745.912 221.397 749.4 243.511C752.887 265.623 749.701 284.666 738.983 299.133C728.265 313.6 710.976 322.195 688.807 325.3C666.636 328.405 639.625 326.01 609.544 318.533C549.384 303.579 477.047 268.32 406.81 216.286C336.573 164.252 281.773 105.322 249.944 52.1263C234.028 25.5277 223.87 0.384941 220.382 -21.7291C216.895 -43.8408 220.081 -62.8836 230.799 -77.3508C241.517 -91.818 258.806 -100.413 280.974 -103.518C303.145 -106.623 330.157 -104.228 360.238 -96.7508C420.398 -81.7967 492.735 -46.5382 562.972 5.49622Z" stroke="url(#paint89_linear_2921_12348)"/>
<path d="M564.8 6.87466C634.118 60.1269 687.881 120.004 718.777 173.747C734.226 200.619 743.944 225.936 747.045 248.107C750.146 270.276 746.628 289.261 735.659 303.539C724.69 317.816 707.254 326.109 685.035 328.826C662.813 331.543 635.847 328.678 605.901 320.677C546.011 304.675 474.301 268.159 404.983 214.907C335.665 161.655 281.901 101.777 251.005 48.0346C235.557 21.1622 225.838 -4.15397 222.737 -26.3256C219.636 -48.4948 223.154 -67.479 234.123 -81.757C245.092 -96.0349 262.528 -104.327 284.748 -107.044C306.97 -109.762 333.935 -106.896 363.881 -98.895C423.771 -82.8932 495.482 -46.3776 564.8 6.87466Z" stroke="url(#paint90_linear_2921_12348)"/>
<path d="M566.603 8.28541C634.981 62.7393 687.691 123.546 717.644 177.82C732.622 204.958 741.897 230.439 744.611 252.662C747.324 274.882 743.475 293.802 732.259 307.886C721.042 321.97 703.464 329.957 681.201 332.286C658.935 334.615 632.023 331.279 602.221 322.757C542.62 305.712 471.558 267.951 403.18 213.497C334.802 159.043 282.091 98.2362 252.138 43.9626C237.161 16.8247 227.886 -8.65723 225.172 -30.8796C222.458 -53.0995 226.307 -72.0195 237.524 -86.1038C248.74 -100.188 266.318 -108.175 288.582 -110.504C310.848 -112.833 337.759 -109.497 367.561 -100.975C427.162 -83.9301 498.225 -46.1685 566.603 8.28541Z" stroke="url(#paint91_linear_2921_12348)"/>
<path d="M568.381 9.72678C635.798 65.3657 687.439 127.083 716.441 181.871C730.942 209.266 739.771 234.906 742.097 257.173C744.422 279.437 740.243 298.286 728.783 312.173C717.323 326.059 699.608 333.738 677.307 335.678C655.004 337.618 628.155 333.813 598.506 324.772C539.211 306.69 468.819 267.694 401.401 212.055C333.984 156.416 282.343 94.6985 253.342 39.9103C238.84 12.5152 230.011 -13.1247 227.686 -35.391C225.36 -57.6549 229.539 -76.5049 240.999 -90.3913C252.46 -104.278 270.175 -111.956 292.476 -113.896C314.779 -115.837 341.628 -112.032 371.276 -102.99C430.571 -84.9082 500.964 -45.9122 568.381 9.72678Z" stroke="url(#paint92_linear_2921_12348)"/>
<path d="M570.134 11.1995C636.57 68.0066 687.126 130.616 715.167 185.902C729.188 213.546 737.568 239.336 739.505 261.639C741.441 283.941 736.934 302.715 725.233 316.399C713.532 330.083 695.686 337.451 673.354 339.002C651.021 340.553 624.242 336.28 594.756 326.722C535.786 307.608 466.084 267.39 399.648 210.582C333.212 153.775 282.656 91.1662 254.615 35.8803C240.594 8.2362 232.214 -17.5539 230.278 -39.8574C228.341 -62.1585 232.848 -80.9327 244.549 -94.6169C256.25 -108.301 274.097 -115.669 296.428 -117.22C318.761 -118.771 345.54 -114.498 375.026 -104.94C433.996 -85.8262 503.698 -45.6076 570.134 11.1995Z" stroke="url(#paint93_linear_2921_12348)"/>
<path d="M571.861 12.7026C637.295 70.6605 686.751 134.142 713.823 189.909C727.359 217.794 735.288 243.726 736.835 266.06C738.382 288.392 733.548 307.084 721.61 320.562C709.672 334.04 691.7 341.096 669.345 342.257C646.987 343.417 620.287 338.678 590.972 328.607C532.345 308.467 463.356 267.038 397.922 209.08C332.487 151.122 283.031 87.6399 255.96 31.873C242.423 3.98848 234.495 -21.944 232.947 -44.2779C231.4 -66.6094 236.234 -85.302 248.172 -98.78C260.11 -112.258 278.083 -119.314 300.438 -120.474C322.795 -121.635 349.495 -116.895 378.81 -106.825C437.437 -86.6843 506.426 -45.2553 571.861 12.7026Z" stroke="url(#paint94_linear_2921_12348)"/>
<path d="M573.561 14.2356C637.974 73.3266 686.314 137.662 712.408 193.893C725.456 222.009 732.931 248.076 734.088 270.434C735.245 292.789 730.086 311.394 717.914 324.662C705.743 337.93 687.65 344.67 665.278 345.441C642.904 346.211 616.291 341.006 587.156 330.426C528.889 309.265 460.634 266.638 396.221 207.547C331.808 148.456 283.468 84.1207 257.373 27.8898C244.326 -0.226686 236.851 -26.2935 235.694 -48.6511C234.537 -71.0062 239.696 -89.6116 251.868 -102.879C264.039 -116.147 282.132 -122.888 304.503 -123.658C326.878 -124.428 353.491 -119.223 382.626 -108.643C440.893 -87.4822 509.148 -44.8555 573.561 14.2356Z" stroke="url(#paint95_linear_2921_12348)"/>
<path d="M575.235 15.7972C638.606 76.0034 685.816 141.173 710.925 197.85C723.48 226.19 730.499 252.384 731.266 274.758C732.033 297.13 726.549 315.642 714.148 328.696C701.747 341.749 683.54 348.173 661.158 348.553C638.774 348.933 612.255 343.264 583.31 332.176C525.421 310.002 457.92 266.191 394.548 205.984C331.176 145.778 283.966 80.6089 258.857 23.9312C246.302 -4.40876 239.283 -30.6021 238.516 -52.9764C237.75 -75.3483 243.233 -93.8608 255.634 -106.914C268.035 -119.967 286.243 -126.391 308.625 -126.771C331.009 -127.151 357.527 -121.482 386.473 -110.395C444.362 -88.2204 511.863 -44.409 575.235 15.7972Z" stroke="url(#paint96_linear_2921_12348)"/>
<path d="M576.88 17.3883C639.191 78.6914 685.257 144.675 709.373 201.782C721.431 230.337 727.992 256.649 728.368 279.033C728.744 301.415 722.939 319.829 710.311 332.663C697.684 345.498 679.368 351.604 656.983 351.593C634.595 351.582 608.18 345.451 579.432 333.86C521.939 310.679 455.213 265.696 392.901 204.393C330.59 143.09 284.524 77.1068 260.408 19.9995C248.35 -8.55524 241.789 -34.8671 241.413 -57.2514C241.037 -79.6332 246.843 -98.0472 259.47 -110.882C272.097 -123.717 290.414 -129.822 312.799 -129.811C335.186 -129.8 361.601 -123.67 390.349 -112.079C447.842 -88.8975 514.568 -43.9147 576.88 17.3883Z" stroke="url(#paint97_linear_2921_12348)"/>
<path d="M578.498 19.0079C639.73 81.3891 684.637 148.166 707.752 205.686C719.311 234.447 725.411 260.869 725.397 283.256C725.382 305.641 719.256 323.951 706.407 336.564C693.558 349.176 675.137 354.961 652.756 354.559C630.372 354.158 604.067 347.567 575.526 335.476C518.447 311.295 452.516 265.155 391.284 202.773C330.052 140.392 285.145 73.615 262.029 16.0955C250.471 -12.6654 244.37 -39.0877 244.385 -61.4751C244.399 -83.8601 250.526 -102.17 263.375 -114.782C276.224 -127.395 294.644 -133.18 317.026 -132.778C339.41 -132.376 365.714 -125.786 394.255 -113.695C451.335 -89.5138 517.266 -43.3733 578.498 19.0079Z" stroke="url(#paint98_linear_2921_12348)"/>
<path d="M580.088 20.6557C640.222 84.0961 683.956 151.647 706.065 209.561C717.119 238.519 722.758 265.044 722.352 287.428C721.947 309.809 715.502 328.009 702.435 340.396C689.368 352.782 670.849 358.244 648.478 357.452C626.105 356.66 599.919 349.611 571.594 337.024C514.945 311.85 449.829 264.566 389.695 201.126C329.561 137.686 285.826 70.1348 263.718 12.2206C252.663 -16.7376 247.025 -43.2624 247.43 -65.6461C247.835 -88.0275 254.28 -106.228 267.348 -118.614C280.415 -131 298.934 -136.463 321.305 -135.67C343.678 -134.878 369.863 -127.83 398.189 -115.242C454.838 -90.0687 519.954 -42.7846 580.088 20.6557Z" stroke="url(#paint99_linear_2921_12348)"/>
</g>
<defs>
<linearGradient id="paint0_linear_2921_12348" x1="546.214" y1="157.175" x2="422.016" y2="61.7617" gradientUnits="userSpaceOnUse">
<stop stop-color="#FF1CF7"/>
<stop offset="1" stop-color="#00F0FF"/>
</linearGradient>
<linearGradient id="paint1_linear_2921_12348" x1="545.398" y1="158.238" x2="422.884" y2="60.6718" gradientUnits="userSpaceOnUse">
<stop stop-color="#FF1CF7"/>
<stop offset="1" stop-color="#00F0FF"/>
</linearGradient>
<linearGradient id="paint2_linear_2921_12348" x1="544.562" y1="159.286" x2="423.769" y2="59.5972" gradientUnits="userSpaceOnUse">
<stop stop-color="#FF1CF7"/>
<stop offset="1" stop-color="#00F0FF"/>
</linearGradient>
<linearGradient id="paint3_linear_2921_12348" x1="543.708" y1="160.321" x2="424.674" y2="58.5384" gradientUnits="userSpaceOnUse">
<stop stop-color="#FF1CF7"/>
<stop offset="1" stop-color="#00F0FF"/>
</linearGradient>
<linearGradient id="paint4_linear_2921_12348" x1="542.836" y1="161.34" x2="425.596" y2="57.4954" gradientUnits="userSpaceOnUse">
<stop stop-color="#FF1CF7"/>
<stop offset="1" stop-color="#00F0FF"/>
</linearGradient>
<linearGradient id="paint5_linear_2921_12348" x1="541.947" y1="162.343" x2="426.537" y2="56.4686" gradientUnits="userSpaceOnUse">
<stop stop-color="#FF1CF7"/>
<stop offset="1" stop-color="#00F0FF"/>
</linearGradient>
<linearGradient id="paint6_linear_2921_12348" x1="541.041" y1="163.331" x2="427.496" y2="55.4585" gradientUnits="userSpaceOnUse">
<stop stop-color="#FF1CF7"/>
<stop offset="1" stop-color="#00F0FF"/>
</linearGradient>
<linearGradient id="paint7_linear_2921_12348" x1="540.116" y1="164.303" x2="428.472" y2="54.4651" gradientUnits="userSpaceOnUse">
<stop stop-color="#FF1CF7"/>
<stop offset="1" stop-color="#00F0FF"/>
</linearGradient>
<linearGradient id="paint8_linear_2921_12348" x1="539.176" y1="165.258" x2="429.465" y2="53.489" gradientUnits="userSpaceOnUse">
<stop stop-color="#FF1CF7"/>
<stop offset="1" stop-color="#00F0FF"/>
</linearGradient>
<linearGradient id="paint9_linear_2921_12348" x1="538.219" y1="166.198" x2="430.476" y2="52.5305" gradientUnits="userSpaceOnUse">
<stop stop-color="#FF1CF7"/>
<stop offset="1" stop-color="#00F0FF"/>
</linearGradient>
<linearGradient id="paint10_linear_2921_12348" x1="537.246" y1="167.12" x2="431.503" y2="51.5899" gradientUnits="userSpaceOnUse">
<stop stop-color="#FF1CF7"/>
<stop offset="1" stop-color="#00F0FF"/>
</linearGradient>
<linearGradient id="paint11_linear_2921_12348" x1="536.256" y1="168.025" x2="432.545" y2="50.667" gradientUnits="userSpaceOnUse">
<stop stop-color="#FF1CF7"/>
<stop offset="1" stop-color="#00F0FF"/>
</linearGradient>
<linearGradient id="paint12_linear_2921_12348" x1="535.251" y1="168.913" x2="433.604" y2="49.7625" gradientUnits="userSpaceOnUse">
<stop stop-color="#FF1CF7"/>
<stop offset="1" stop-color="#00F0FF"/>
</linearGradient>
<linearGradient id="paint13_linear_2921_12348" x1="534.23" y1="169.783" x2="434.679" y2="48.8767" gradientUnits="userSpaceOnUse">
<stop stop-color="#FF1CF7"/>
<stop offset="1" stop-color="#00F0FF"/>
</linearGradient>
<linearGradient id="paint14_linear_2921_12348" x1="533.195" y1="170.635" x2="435.769" y2="48.01" gradientUnits="userSpaceOnUse">
<stop stop-color="#FF1CF7"/>
<stop offset="1" stop-color="#00F0FF"/>
</linearGradient>
<linearGradient id="paint15_linear_2921_12348" x1="532.146" y1="171.469" x2="436.874" y2="47.1624" gradientUnits="userSpaceOnUse">
<stop stop-color="#FF1CF7"/>
<stop offset="1" stop-color="#00F0FF"/>
</linearGradient>
<linearGradient id="paint16_linear_2921_12348" x1="531.081" y1="172.284" x2="437.994" y2="46.3338" gradientUnits="userSpaceOnUse">
<stop stop-color="#FF1CF7"/>
<stop offset="1" stop-color="#00F0FF"/>
</linearGradient>
<linearGradient id="paint17_linear_2921_12348" x1="530.003" y1="173.081" x2="439.128" y2="45.5254" gradientUnits="userSpaceOnUse">
<stop stop-color="#FF1CF7"/>
<stop offset="1" stop-color="#00F0FF"/>
</linearGradient>
<linearGradient id="paint18_linear_2921_12348" x1="528.91" y1="173.859" x2="440.275" y2="44.7365" gradientUnits="userSpaceOnUse">
<stop stop-color="#FF1CF7"/>
<stop offset="1" stop-color="#00F0FF"/>
</linearGradient>
<linearGradient id="paint19_linear_2921_12348" x1="527.805" y1="174.618" x2="441.437" y2="43.968" gradientUnits="userSpaceOnUse">
<stop stop-color="#FF1CF7"/>
<stop offset="1" stop-color="#00F0FF"/>
</linearGradient>
<linearGradient id="paint20_linear_2921_12348" x1="526.686" y1="175.357" x2="442.612" y2="43.22" gradientUnits="userSpaceOnUse">
<stop stop-color="#FF1CF7"/>
<stop offset="1" stop-color="#00F0FF"/>
</linearGradient>
<linearGradient id="paint21_linear_2921_12348" x1="525.554" y1="176.076" x2="443.798" y2="42.492" gradientUnits="userSpaceOnUse">
<stop stop-color="#FF1CF7"/>
<stop offset="1" stop-color="#00F0FF"/>
</linearGradient>
<linearGradient id="paint22_linear_2921_12348" x1="524.411" y1="176.776" x2="444.998" y2="41.7855" gradientUnits="userSpaceOnUse">
<stop stop-color="#FF1CF7"/>
<stop offset="1" stop-color="#00F0FF"/>
</linearGradient>
<linearGradient id="paint23_linear_2921_12348" x1="523.255" y1="177.456" x2="446.211" y2="41.0997" gradientUnits="userSpaceOnUse">
<stop stop-color="#FF1CF7"/>
<stop offset="1" stop-color="#00F0FF"/>
</linearGradient>
<linearGradient id="paint24_linear_2921_12348" x1="522.087" y1="178.115" x2="447.435" y2="40.4354" gradientUnits="userSpaceOnUse">
<stop stop-color="#FF1CF7"/>
<stop offset="1" stop-color="#00F0FF"/>
</linearGradient>
<linearGradient id="paint25_linear_2921_12348" x1="520.908" y1="178.754" x2="448.67" y2="39.7925" gradientUnits="userSpaceOnUse">
<stop stop-color="#FF1CF7"/>
<stop offset="1" stop-color="#00F0FF"/>
</linearGradient>
<linearGradient id="paint26_linear_2921_12348" x1="519.719" y1="179.373" x2="449.916" y2="39.1713" gradientUnits="userSpaceOnUse">
<stop stop-color="#FF1CF7"/>
<stop offset="1" stop-color="#00F0FF"/>
</linearGradient>
<linearGradient id="paint27_linear_2921_12348" x1="518.518" y1="179.97" x2="451.174" y2="38.5715" gradientUnits="userSpaceOnUse">
<stop stop-color="#FF1CF7"/>
<stop offset="1" stop-color="#00F0FF"/>
</linearGradient>
<linearGradient id="paint28_linear_2921_12348" x1="517.307" y1="180.546" x2="452.44" y2="37.9941" gradientUnits="userSpaceOnUse">
<stop stop-color="#FF1CF7"/>
<stop offset="1" stop-color="#00F0FF"/>
</linearGradient>
<linearGradient id="paint29_linear_2921_12348" x1="516.087" y1="181.102" x2="453.718" y2="37.4391" gradientUnits="userSpaceOnUse">
<stop stop-color="#FF1CF7"/>
<stop offset="1" stop-color="#00F0FF"/>
</linearGradient>
<linearGradient id="paint30_linear_2921_12348" x1="514.857" y1="181.635" x2="455.004" y2="36.906" gradientUnits="userSpaceOnUse">
<stop stop-color="#FF1CF7"/>
<stop offset="1" stop-color="#00F0FF"/>
</linearGradient>
<linearGradient id="paint31_linear_2921_12348" x1="513.617" y1="182.147" x2="456.3" y2="36.3957" gradientUnits="userSpaceOnUse">
<stop stop-color="#FF1CF7"/>
<stop offset="1" stop-color="#00F0FF"/>
</linearGradient>
<linearGradient id="paint32_linear_2921_12348" x1="512.37" y1="182.638" x2="457.605" y2="35.9082" gradientUnits="userSpaceOnUse">
<stop stop-color="#FF1CF7"/>
<stop offset="1" stop-color="#00F0FF"/>
</linearGradient>
<linearGradient id="paint33_linear_2921_12348" x1="511.113" y1="183.106" x2="458.917" y2="35.4433" gradientUnits="userSpaceOnUse">
<stop stop-color="#FF1CF7"/>
<stop offset="1" stop-color="#00F0FF"/>
</linearGradient>
<linearGradient id="paint34_linear_2921_12348" x1="509.848" y1="183.553" x2="460.237" y2="35.0013" gradientUnits="userSpaceOnUse">
<stop stop-color="#FF1CF7"/>
<stop offset="1" stop-color="#00F0FF"/>
</linearGradient>
<linearGradient id="paint35_linear_2921_12348" x1="508.577" y1="183.978" x2="461.566" y2="34.5829" gradientUnits="userSpaceOnUse">
<stop stop-color="#FF1CF7"/>
<stop offset="1" stop-color="#00F0FF"/>
</linearGradient>
<linearGradient id="paint36_linear_2921_12348" x1="507.298" y1="184.38" x2="462.902" y2="34.1875" gradientUnits="userSpaceOnUse">
<stop stop-color="#FF1CF7"/>
<stop offset="1" stop-color="#00F0FF"/>
</linearGradient>
<linearGradient id="paint37_linear_2921_12348" x1="506.012" y1="184.76" x2="464.244" y2="33.8152" gradientUnits="userSpaceOnUse">
<stop stop-color="#FF1CF7"/>
<stop offset="1" stop-color="#00F0FF"/>
</linearGradient>
<linearGradient id="paint38_linear_2921_12348" x1="504.719" y1="185.117" x2="465.592" y2="33.4666" gradientUnits="userSpaceOnUse">
<stop stop-color="#FF1CF7"/>
<stop offset="1" stop-color="#00F0FF"/>
</linearGradient>
<linearGradient id="paint39_linear_2921_12348" x1="503.421" y1="185.452" x2="466.946" y2="33.1417" gradientUnits="userSpaceOnUse">
<stop stop-color="#FF1CF7"/>
<stop offset="1" stop-color="#00F0FF"/>
</linearGradient>
<linearGradient id="paint40_linear_2921_12348" x1="502.117" y1="185.764" x2="468.306" y2="32.8402" gradientUnits="userSpaceOnUse">
<stop stop-color="#FF1CF7"/>
<stop offset="1" stop-color="#00F0FF"/>
</linearGradient>
<linearGradient id="paint41_linear_2921_12348" x1="500.807" y1="186.053" x2="469.67" y2="32.5624" gradientUnits="userSpaceOnUse">
<stop stop-color="#FF1CF7"/>
<stop offset="1" stop-color="#00F0FF"/>
</linearGradient>
<linearGradient id="paint42_linear_2921_12348" x1="499.493" y1="186.319" x2="471.04" y2="32.3088" gradientUnits="userSpaceOnUse">
<stop stop-color="#FF1CF7"/>
<stop offset="1" stop-color="#00F0FF"/>
</linearGradient>
<linearGradient id="paint43_linear_2921_12348" x1="498.174" y1="186.563" x2="472.413" y2="32.079" gradientUnits="userSpaceOnUse">
<stop stop-color="#FF1CF7"/>
<stop offset="1" stop-color="#00F0FF"/>
</linearGradient>
<linearGradient id="paint44_linear_2921_12348" x1="496.852" y1="186.783" x2="473.791" y2="31.8733" gradientUnits="userSpaceOnUse">
<stop stop-color="#FF1CF7"/>
<stop offset="1" stop-color="#00F0FF"/>
</linearGradient>
<linearGradient id="paint45_linear_2921_12348" x1="495.526" y1="186.98" x2="475.172" y2="31.6918" gradientUnits="userSpaceOnUse">
<stop stop-color="#FF1CF7"/>
<stop offset="1" stop-color="#00F0FF"/>
</linearGradient>
<linearGradient id="paint46_linear_2921_12348" x1="494.196" y1="187.154" x2="476.555" y2="31.5344" gradientUnits="userSpaceOnUse">
<stop stop-color="#FF1CF7"/>
<stop offset="1" stop-color="#00F0FF"/>
</linearGradient>
<linearGradient id="paint47_linear_2921_12348" x1="492.864" y1="187.305" x2="477.942" y2="31.4009" gradientUnits="userSpaceOnUse">
<stop stop-color="#FF1CF7"/>
<stop offset="1" stop-color="#00F0FF"/>
</linearGradient>
<linearGradient id="paint48_linear_2921_12348" x1="491.529" y1="187.432" x2="479.33" y2="31.2915" gradientUnits="userSpaceOnUse">
<stop stop-color="#FF1CF7"/>
<stop offset="1" stop-color="#00F0FF"/>
</linearGradient>
<linearGradient id="paint49_linear_2921_12348" x1="490.192" y1="187.537" x2="480.72" y2="31.2071" gradientUnits="userSpaceOnUse">
<stop stop-color="#FF1CF7"/>
<stop offset="1" stop-color="#00F0FF"/>
</linearGradient>
<linearGradient id="paint50_linear_2921_12348" x1="488.854" y1="187.618" x2="482.111" y2="31.1463" gradientUnits="userSpaceOnUse">
<stop stop-color="#FF1CF7"/>
<stop offset="1" stop-color="#00F0FF"/>
</linearGradient>
<linearGradient id="paint51_linear_2921_12348" x1="487.514" y1="187.675" x2="483.503" y2="31.1098" gradientUnits="userSpaceOnUse">
<stop stop-color="#FF1CF7"/>
<stop offset="1" stop-color="#00F0FF"/>
</linearGradient>
<linearGradient id="paint52_linear_2921_12348" x1="486.174" y1="187.709" x2="484.896" y2="31.0979" gradientUnits="userSpaceOnUse">
<stop stop-color="#FF1CF7"/>
<stop offset="1" stop-color="#00F0FF"/>
</linearGradient>
<linearGradient id="paint53_linear_2921_12348" x1="484.833" y1="187.72" x2="486.289" y2="31.1099" gradientUnits="userSpaceOnUse">
<stop stop-color="#FF1CF7"/>
<stop offset="1" stop-color="#00F0FF"/>
</linearGradient>
<linearGradient id="paint54_linear_2921_12348" x1="483.492" y1="187.707" x2="487.681" y2="31.1464" gradientUnits="userSpaceOnUse">
<stop stop-color="#FF1CF7"/>
<stop offset="1" stop-color="#00F0FF"/>
</linearGradient>
<linearGradient id="paint55_linear_2921_12348" x1="482.151" y1="187.671" x2="489.072" y2="31.2074" gradientUnits="userSpaceOnUse">
<stop stop-color="#FF1CF7"/>
<stop offset="1" stop-color="#00F0FF"/>
</linearGradient>
<linearGradient id="paint56_linear_2921_12348" x1="480.812" y1="187.612" x2="490.462" y2="31.2925" gradientUnits="userSpaceOnUse">
<stop stop-color="#FF1CF7"/>
<stop offset="1" stop-color="#00F0FF"/>
</linearGradient>
<linearGradient id="paint57_linear_2921_12348" x1="479.473" y1="187.529" x2="491.85" y2="31.4016" gradientUnits="userSpaceOnUse">
<stop stop-color="#FF1CF7"/>
<stop offset="1" stop-color="#00F0FF"/>
</linearGradient>
<linearGradient id="paint58_linear_2921_12348" x1="478.137" y1="187.423" x2="493.237" y2="31.5355" gradientUnits="userSpaceOnUse">
<stop stop-color="#FF1CF7"/>
<stop offset="1" stop-color="#00F0FF"/>
</linearGradient>
<linearGradient id="paint59_linear_2921_12348" x1="476.802" y1="187.293" x2="494.621" y2="31.6929" gradientUnits="userSpaceOnUse">
<stop stop-color="#FF1CF7"/>
<stop offset="1" stop-color="#00F0FF"/>
</linearGradient>
<linearGradient id="paint60_linear_2921_12348" x1="475.47" y1="187.14" x2="496.001" y2="31.875" gradientUnits="userSpaceOnUse">
<stop stop-color="#FF1CF7"/>
<stop offset="1" stop-color="#00F0FF"/>
</linearGradient>
<linearGradient id="paint61_linear_2921_12348" x1="474.141" y1="186.964" x2="497.378" y2="32.0809" gradientUnits="userSpaceOnUse">
<stop stop-color="#FF1CF7"/>
<stop offset="1" stop-color="#00F0FF"/>
</linearGradient>
<linearGradient id="paint62_linear_2921_12348" x1="472.815" y1="186.765" x2="498.752" y2="32.3108" gradientUnits="userSpaceOnUse">
<stop stop-color="#FF1CF7"/>
<stop offset="1" stop-color="#00F0FF"/>
</linearGradient>
<linearGradient id="paint63_linear_2921_12348" x1="471.492" y1="186.543" x2="500.121" y2="32.5648" gradientUnits="userSpaceOnUse">
<stop stop-color="#FF1CF7"/>
<stop offset="1" stop-color="#00F0FF"/>
</linearGradient>
<linearGradient id="paint64_linear_2921_12348" x1="470.174" y1="186.297" x2="501.485" y2="32.8424" gradientUnits="userSpaceOnUse">
<stop stop-color="#FF1CF7"/>
<stop offset="1" stop-color="#00F0FF"/>
</linearGradient>
<linearGradient id="paint65_linear_2921_12348" x1="468.86" y1="186.029" x2="502.845" y2="33.1439" gradientUnits="userSpaceOnUse">
<stop stop-color="#FF1CF7"/>
<stop offset="1" stop-color="#00F0FF"/>
</linearGradient>
<linearGradient id="paint66_linear_2921_12348" x1="467.551" y1="185.738" x2="504.2" y2="33.4691" gradientUnits="userSpaceOnUse">
<stop stop-color="#FF1CF7"/>
<stop offset="1" stop-color="#00F0FF"/>
</linearGradient>
<linearGradient id="paint67_linear_2921_12348" x1="466.247" y1="185.424" x2="505.547" y2="33.8178" gradientUnits="userSpaceOnUse">
<stop stop-color="#FF1CF7"/>
<stop offset="1" stop-color="#00F0FF"/>
</linearGradient>
<linearGradient id="paint68_linear_2921_12348" x1="464.95" y1="185.087" x2="506.89" y2="34.1901" gradientUnits="userSpaceOnUse">
<stop stop-color="#FF1CF7"/>
<stop offset="1" stop-color="#00F0FF"/>
</linearGradient>
<linearGradient id="paint69_linear_2921_12348" x1="463.658" y1="184.728" x2="508.225" y2="34.586" gradientUnits="userSpaceOnUse">
<stop stop-color="#FF1CF7"/>
<stop offset="1" stop-color="#00F0FF"/>
</linearGradient>
<linearGradient id="paint70_linear_2921_12348" x1="462.373" y1="184.346" x2="509.553" y2="35.0043" gradientUnits="userSpaceOnUse">
<stop stop-color="#FF1CF7"/>
<stop offset="1" stop-color="#00F0FF"/>
</linearGradient>
<linearGradient id="paint71_linear_2921_12348" x1="461.093" y1="183.941" x2="510.873" y2="35.4464" gradientUnits="userSpaceOnUse">
<stop stop-color="#FF1CF7"/>
<stop offset="1" stop-color="#00F0FF"/>
</linearGradient>
<linearGradient id="paint72_linear_2921_12348" x1="459.823" y1="183.515" x2="512.186" y2="35.9115" gradientUnits="userSpaceOnUse">
<stop stop-color="#FF1CF7"/>
<stop offset="1" stop-color="#00F0FF"/>
</linearGradient>
<linearGradient id="paint73_linear_2921_12348" x1="458.559" y1="183.066" x2="513.491" y2="36.3991" gradientUnits="userSpaceOnUse">
<stop stop-color="#FF1CF7"/>
<stop offset="1" stop-color="#00F0FF"/>
</linearGradient>
<linearGradient id="paint74_linear_2921_12348" x1="457.303" y1="182.596" x2="514.786" y2="36.9095" gradientUnits="userSpaceOnUse">
<stop stop-color="#FF1CF7"/>
<stop offset="1" stop-color="#00F0FF"/>
</linearGradient>
<linearGradient id="paint75_linear_2921_12348" x1="456.057" y1="182.104" x2="516.074" y2="37.4428" gradientUnits="userSpaceOnUse">
<stop stop-color="#FF1CF7"/>
<stop offset="1" stop-color="#00F0FF"/>
</linearGradient>
<linearGradient id="paint76_linear_2921_12348" x1="454.818" y1="181.59" x2="517.351" y2="37.9981" gradientUnits="userSpaceOnUse">
<stop stop-color="#FF1CF7"/>
<stop offset="1" stop-color="#00F0FF"/>
</linearGradient>
<linearGradient id="paint77_linear_2921_12348" x1="453.589" y1="181.054" x2="518.618" y2="38.5761" gradientUnits="userSpaceOnUse">
<stop stop-color="#FF1CF7"/>
<stop offset="1" stop-color="#00F0FF"/>
</linearGradient>
<linearGradient id="paint78_linear_2921_12348" x1="452.369" y1="180.497" x2="519.875" y2="39.1754" gradientUnits="userSpaceOnUse">
<stop stop-color="#FF1CF7"/>
<stop offset="1" stop-color="#00F0FF"/>
</linearGradient>
<linearGradient id="paint79_linear_2921_12348" x1="451.159" y1="179.919" x2="521.121" y2="39.7971" gradientUnits="userSpaceOnUse">
<stop stop-color="#FF1CF7"/>
<stop offset="1" stop-color="#00F0FF"/>
</linearGradient>
<linearGradient id="paint80_linear_2921_12348" x1="449.959" y1="179.32" x2="522.356" y2="40.44" gradientUnits="userSpaceOnUse">
<stop stop-color="#FF1CF7"/>
<stop offset="1" stop-color="#00F0FF"/>
</linearGradient>
<linearGradient id="paint81_linear_2921_12348" x1="448.771" y1="178.7" x2="523.58" y2="41.1047" gradientUnits="userSpaceOnUse">
<stop stop-color="#FF1CF7"/>
<stop offset="1" stop-color="#00F0FF"/>
</linearGradient>
<linearGradient id="paint82_linear_2921_12348" x1="447.592" y1="178.059" x2="524.792" y2="41.7904" gradientUnits="userSpaceOnUse">
<stop stop-color="#FF1CF7"/>
<stop offset="1" stop-color="#00F0FF"/>
</linearGradient>
<linearGradient id="paint83_linear_2921_12348" x1="446.426" y1="177.398" x2="525.992" y2="42.4973" gradientUnits="userSpaceOnUse">
<stop stop-color="#FF1CF7"/>
<stop offset="1" stop-color="#00F0FF"/>
</linearGradient>
<linearGradient id="paint84_linear_2921_12348" x1="445.271" y1="176.716" x2="527.179" y2="43.225" gradientUnits="userSpaceOnUse">
<stop stop-color="#FF1CF7"/>
<stop offset="1" stop-color="#00F0FF"/>
</linearGradient>
<linearGradient id="paint85_linear_2921_12348" x1="444.128" y1="176.015" x2="528.353" y2="43.9736" gradientUnits="userSpaceOnUse">
<stop stop-color="#FF1CF7"/>
<stop offset="1" stop-color="#00F0FF"/>
</linearGradient>
<linearGradient id="paint86_linear_2921_12348" x1="442.998" y1="175.293" x2="529.515" y2="44.742" gradientUnits="userSpaceOnUse">
<stop stop-color="#FF1CF7"/>
<stop offset="1" stop-color="#00F0FF"/>
</linearGradient>
<linearGradient id="paint87_linear_2921_12348" x1="441.88" y1="174.552" x2="530.663" y2="45.5306" gradientUnits="userSpaceOnUse">
<stop stop-color="#FF1CF7"/>
<stop offset="1" stop-color="#00F0FF"/>
</linearGradient>
<linearGradient id="paint88_linear_2921_12348" x1="440.775" y1="173.792" x2="531.796" y2="46.3396" gradientUnits="userSpaceOnUse">
<stop stop-color="#FF1CF7"/>
<stop offset="1" stop-color="#00F0FF"/>
</linearGradient>
<linearGradient id="paint89_linear_2921_12348" x1="439.685" y1="173.013" x2="532.915" y2="47.1683" gradientUnits="userSpaceOnUse">
<stop stop-color="#FF1CF7"/>
<stop offset="1" stop-color="#00F0FF"/>
</linearGradient>
<linearGradient id="paint90_linear_2921_12348" x1="438.608" y1="172.214" x2="534.021" y2="48.0158" gradientUnits="userSpaceOnUse">
<stop stop-color="#FF1CF7"/>
<stop offset="1" stop-color="#00F0FF"/>
</linearGradient>
<linearGradient id="paint91_linear_2921_12348" x1="437.544" y1="171.397" x2="535.11" y2="48.8831" gradientUnits="userSpaceOnUse">
<stop stop-color="#FF1CF7"/>
<stop offset="1" stop-color="#00F0FF"/>
</linearGradient>
<linearGradient id="paint92_linear_2921_12348" x1="436.496" y1="170.561" x2="536.185" y2="49.7687" gradientUnits="userSpaceOnUse">
<stop stop-color="#FF1CF7"/>
<stop offset="1" stop-color="#00F0FF"/>
</linearGradient>
<linearGradient id="paint93_linear_2921_12348" x1="435.462" y1="169.708" x2="537.244" y2="50.6734" gradientUnits="userSpaceOnUse">
<stop stop-color="#FF1CF7"/>
<stop offset="1" stop-color="#00F0FF"/>
</linearGradient>
<linearGradient id="paint94_linear_2921_12348" x1="434.443" y1="168.836" x2="538.287" y2="51.5965" gradientUnits="userSpaceOnUse">
<stop stop-color="#FF1CF7"/>
<stop offset="1" stop-color="#00F0FF"/>
</linearGradient>
<linearGradient id="paint95_linear_2921_12348" x1="433.439" y1="167.947" x2="539.313" y2="52.5376" gradientUnits="userSpaceOnUse">
<stop stop-color="#FF1CF7"/>
<stop offset="1" stop-color="#00F0FF"/>
</linearGradient>
<linearGradient id="paint96_linear_2921_12348" x1="432.451" y1="167.04" x2="540.324" y2="53.4957" gradientUnits="userSpaceOnUse">
<stop stop-color="#FF1CF7"/>
<stop offset="1" stop-color="#00F0FF"/>
</linearGradient>
<linearGradient id="paint97_linear_2921_12348" x1="431.479" y1="166.116" x2="541.316" y2="54.4718" gradientUnits="userSpaceOnUse">
<stop stop-color="#FF1CF7"/>
<stop offset="1" stop-color="#00F0FF"/>
</linearGradient>
<linearGradient id="paint98_linear_2921_12348" x1="430.523" y1="165.176" x2="542.293" y2="55.4651" gradientUnits="userSpaceOnUse">
<stop stop-color="#FF1CF7"/>
<stop offset="1" stop-color="#00F0FF"/>
</linearGradient>
<linearGradient id="paint99_linear_2921_12348" x1="429.585" y1="164.219" x2="543.252" y2="56.4755" gradientUnits="userSpaceOnUse">
<stop stop-color="#FF1CF7"/>
<stop offset="1" stop-color="#00F0FF"/>
</linearGradient>
</defs>
</svg>
