<svg width="18" height="20" viewBox="0 0 18 20" fill="none" xmlns="http://www.w3.org/2000/svg">
<path d="M17.7927 14.4949C17.2723 13.5986 16.4989 11.0627 16.4989 7.75049C16.4989 5.76136 15.7087 3.85371 14.3022 2.44719C12.8957 1.04066 10.988 0.250488 8.99891 0.250488C7.00979 0.250488 5.10214 1.04066 3.69561 2.44719C2.28909 3.85371 1.49891 5.76136 1.49891 7.75049C1.49891 11.0636 0.724538 13.5986 0.204226 14.4949C0.0713545 14.7227 0.000914339 14.9816 8.84153e-06 15.2453C-0.000896656 15.5091 0.0677647 15.7684 0.199068 15.9972C0.330372 16.226 0.519675 16.416 0.747887 16.5483C0.976099 16.6806 1.23515 16.7503 1.49891 16.7505H5.32485C5.49789 17.5972 5.95806 18.3582 6.62754 18.9047C7.29701 19.4512 8.1347 19.7496 8.99891 19.7496C9.86312 19.7496 10.7008 19.4512 11.3703 18.9047C12.0398 18.3582 12.4999 17.5972 12.673 16.7505H16.4989C16.7626 16.7501 17.0215 16.6803 17.2496 16.548C17.4777 16.4156 17.6669 16.2255 17.7981 15.9968C17.9292 15.7681 17.9978 15.5088 17.9969 15.2451C17.9959 14.9814 17.9255 14.7226 17.7927 14.4949ZM8.99891 18.2505C8.53374 18.2503 8.08005 18.106 7.70029 17.8374C7.32052 17.5688 7.03334 17.1891 6.87829 16.7505H11.1195C10.9645 17.1891 10.6773 17.5688 10.2975 17.8374C9.91777 18.106 9.46408 18.2503 8.99891 18.2505ZM1.49891 15.2505C2.22079 14.0092 2.99891 11.133 2.99891 7.75049C2.99891 6.15919 3.63105 4.63307 4.75627 3.50785C5.88149 2.38263 7.40761 1.75049 8.99891 1.75049C10.5902 1.75049 12.1163 2.38263 13.2416 3.50785C14.3668 4.63307 14.9989 6.15919 14.9989 7.75049C14.9989 11.1302 15.7752 14.0064 16.4989 15.2505H1.49891Z" fill="#1A1489"/>
</svg>
