<svg width="20" height="18" viewBox="0 0 20 18" fill="none" xmlns="http://www.w3.org/2000/svg">
<path d="M13.1663 6.87562L8.66625 3.87562C8.55327 3.80025 8.42195 3.75696 8.28629 3.75039C8.15064 3.74382 8.01575 3.77421 7.89601 3.83831C7.77628 3.90241 7.6762 3.99782 7.60645 4.11436C7.5367 4.2309 7.49991 4.36419 7.5 4.5V10.5C7.49991 10.6358 7.5367 10.7691 7.60645 10.8856C7.6762 11.0022 7.77628 11.0976 7.89601 11.1617C8.01575 11.2258 8.15064 11.2562 8.28629 11.2496C8.42195 11.243 8.55327 11.1998 8.66625 11.1244L13.1663 8.12438C13.2691 8.05591 13.3535 7.96309 13.4118 7.85416C13.4702 7.74523 13.5007 7.62357 13.5007 7.5C13.5007 7.37643 13.4702 7.25477 13.4118 7.14584C13.3535 7.03691 13.2691 6.94409 13.1663 6.87562ZM9 9.09844V5.90625L11.3981 7.5L9 9.09844ZM18 0.75H1.5C1.10218 0.75 0.720644 0.908035 0.43934 1.18934C0.158035 1.47064 0 1.85218 0 2.25V12.75C0 13.1478 0.158035 13.5294 0.43934 13.8107C0.720644 14.092 1.10218 14.25 1.5 14.25H18C18.3978 14.25 18.7794 14.092 19.0607 13.8107C19.342 13.5294 19.5 13.1478 19.5 12.75V2.25C19.5 1.85218 19.342 1.47064 19.0607 1.18934C18.7794 0.908035 18.3978 0.75 18 0.75ZM18 12.75H1.5V2.25H18V12.75ZM19.5 16.5C19.5 16.6989 19.421 16.8897 19.2803 17.0303C19.1397 17.171 18.9489 17.25 18.75 17.25H0.75C0.551088 17.25 0.360322 17.171 0.21967 17.0303C0.0790176 16.8897 0 16.6989 0 16.5C0 16.3011 0.0790176 16.1103 0.21967 15.9697C0.360322 15.829 0.551088 15.75 0.75 15.75H18.75C18.9489 15.75 19.1397 15.829 19.2803 15.9697C19.421 16.1103 19.5 16.3011 19.5 16.5Z" fill="#1A1489"/>
</svg>
